%TF.GenerationSoftware,KiCad,Pcbnew,(5.1.7)-1*%
%TF.CreationDate,2020-11-02T22:58:22+00:00*%
%TF.ProjectId,STFM-TF536-Relocator+ROM-MkII,5354464d-2d54-4463-9533-362d52656c6f,rev?*%
%TF.SameCoordinates,Original*%
%TF.FileFunction,Paste,Bot*%
%TF.FilePolarity,Positive*%
%FSLAX46Y46*%
G04 Gerber Fmt 4.6, Leading zero omitted, Abs format (unit mm)*
G04 Created by KiCad (PCBNEW (5.1.7)-1) date 2020-11-02 22:58:22*
%MOMM*%
%LPD*%
G01*
G04 APERTURE LIST*
G04 APERTURE END LIST*
%TO.C,C9*%
G36*
G01*
X69438500Y-74554500D02*
X70388500Y-74554500D01*
G75*
G02*
X70638500Y-74804500I0J-250000D01*
G01*
X70638500Y-75304500D01*
G75*
G02*
X70388500Y-75554500I-250000J0D01*
G01*
X69438500Y-75554500D01*
G75*
G02*
X69188500Y-75304500I0J250000D01*
G01*
X69188500Y-74804500D01*
G75*
G02*
X69438500Y-74554500I250000J0D01*
G01*
G37*
G36*
G01*
X69438500Y-72654500D02*
X70388500Y-72654500D01*
G75*
G02*
X70638500Y-72904500I0J-250000D01*
G01*
X70638500Y-73404500D01*
G75*
G02*
X70388500Y-73654500I-250000J0D01*
G01*
X69438500Y-73654500D01*
G75*
G02*
X69188500Y-73404500I0J250000D01*
G01*
X69188500Y-72904500D01*
G75*
G02*
X69438500Y-72654500I250000J0D01*
G01*
G37*
%TD*%
%TO.C,C7*%
G36*
G01*
X88041500Y-76702500D02*
X87091500Y-76702500D01*
G75*
G02*
X86841500Y-76452500I0J250000D01*
G01*
X86841500Y-75952500D01*
G75*
G02*
X87091500Y-75702500I250000J0D01*
G01*
X88041500Y-75702500D01*
G75*
G02*
X88291500Y-75952500I0J-250000D01*
G01*
X88291500Y-76452500D01*
G75*
G02*
X88041500Y-76702500I-250000J0D01*
G01*
G37*
G36*
G01*
X88041500Y-78602500D02*
X87091500Y-78602500D01*
G75*
G02*
X86841500Y-78352500I0J250000D01*
G01*
X86841500Y-77852500D01*
G75*
G02*
X87091500Y-77602500I250000J0D01*
G01*
X88041500Y-77602500D01*
G75*
G02*
X88291500Y-77852500I0J-250000D01*
G01*
X88291500Y-78352500D01*
G75*
G02*
X88041500Y-78602500I-250000J0D01*
G01*
G37*
%TD*%
%TO.C,C5*%
G36*
G01*
X165994000Y-81755000D02*
X165994000Y-80805000D01*
G75*
G02*
X166244000Y-80555000I250000J0D01*
G01*
X166744000Y-80555000D01*
G75*
G02*
X166994000Y-80805000I0J-250000D01*
G01*
X166994000Y-81755000D01*
G75*
G02*
X166744000Y-82005000I-250000J0D01*
G01*
X166244000Y-82005000D01*
G75*
G02*
X165994000Y-81755000I0J250000D01*
G01*
G37*
G36*
G01*
X164094000Y-81755000D02*
X164094000Y-80805000D01*
G75*
G02*
X164344000Y-80555000I250000J0D01*
G01*
X164844000Y-80555000D01*
G75*
G02*
X165094000Y-80805000I0J-250000D01*
G01*
X165094000Y-81755000D01*
G75*
G02*
X164844000Y-82005000I-250000J0D01*
G01*
X164344000Y-82005000D01*
G75*
G02*
X164094000Y-81755000I0J250000D01*
G01*
G37*
%TD*%
%TO.C,C4*%
G36*
G01*
X40927000Y-73284500D02*
X41877000Y-73284500D01*
G75*
G02*
X42127000Y-73534500I0J-250000D01*
G01*
X42127000Y-74034500D01*
G75*
G02*
X41877000Y-74284500I-250000J0D01*
G01*
X40927000Y-74284500D01*
G75*
G02*
X40677000Y-74034500I0J250000D01*
G01*
X40677000Y-73534500D01*
G75*
G02*
X40927000Y-73284500I250000J0D01*
G01*
G37*
G36*
G01*
X40927000Y-71384500D02*
X41877000Y-71384500D01*
G75*
G02*
X42127000Y-71634500I0J-250000D01*
G01*
X42127000Y-72134500D01*
G75*
G02*
X41877000Y-72384500I-250000J0D01*
G01*
X40927000Y-72384500D01*
G75*
G02*
X40677000Y-72134500I0J250000D01*
G01*
X40677000Y-71634500D01*
G75*
G02*
X40927000Y-71384500I250000J0D01*
G01*
G37*
%TD*%
%TO.C,C3*%
G36*
G01*
X155517000Y-81945500D02*
X155517000Y-80995500D01*
G75*
G02*
X155767000Y-80745500I250000J0D01*
G01*
X156267000Y-80745500D01*
G75*
G02*
X156517000Y-80995500I0J-250000D01*
G01*
X156517000Y-81945500D01*
G75*
G02*
X156267000Y-82195500I-250000J0D01*
G01*
X155767000Y-82195500D01*
G75*
G02*
X155517000Y-81945500I0J250000D01*
G01*
G37*
G36*
G01*
X153617000Y-81945500D02*
X153617000Y-80995500D01*
G75*
G02*
X153867000Y-80745500I250000J0D01*
G01*
X154367000Y-80745500D01*
G75*
G02*
X154617000Y-80995500I0J-250000D01*
G01*
X154617000Y-81945500D01*
G75*
G02*
X154367000Y-82195500I-250000J0D01*
G01*
X153867000Y-82195500D01*
G75*
G02*
X153617000Y-81945500I0J250000D01*
G01*
G37*
%TD*%
%TO.C,C2*%
G36*
G01*
X155517000Y-94518500D02*
X155517000Y-93568500D01*
G75*
G02*
X155767000Y-93318500I250000J0D01*
G01*
X156267000Y-93318500D01*
G75*
G02*
X156517000Y-93568500I0J-250000D01*
G01*
X156517000Y-94518500D01*
G75*
G02*
X156267000Y-94768500I-250000J0D01*
G01*
X155767000Y-94768500D01*
G75*
G02*
X155517000Y-94518500I0J250000D01*
G01*
G37*
G36*
G01*
X153617000Y-94518500D02*
X153617000Y-93568500D01*
G75*
G02*
X153867000Y-93318500I250000J0D01*
G01*
X154367000Y-93318500D01*
G75*
G02*
X154617000Y-93568500I0J-250000D01*
G01*
X154617000Y-94518500D01*
G75*
G02*
X154367000Y-94768500I-250000J0D01*
G01*
X153867000Y-94768500D01*
G75*
G02*
X153617000Y-94518500I0J250000D01*
G01*
G37*
%TD*%
%TO.C,C1*%
G36*
G01*
X59403000Y-75051500D02*
X58453000Y-75051500D01*
G75*
G02*
X58203000Y-74801500I0J250000D01*
G01*
X58203000Y-74301500D01*
G75*
G02*
X58453000Y-74051500I250000J0D01*
G01*
X59403000Y-74051500D01*
G75*
G02*
X59653000Y-74301500I0J-250000D01*
G01*
X59653000Y-74801500D01*
G75*
G02*
X59403000Y-75051500I-250000J0D01*
G01*
G37*
G36*
G01*
X59403000Y-76951500D02*
X58453000Y-76951500D01*
G75*
G02*
X58203000Y-76701500I0J250000D01*
G01*
X58203000Y-76201500D01*
G75*
G02*
X58453000Y-75951500I250000J0D01*
G01*
X59403000Y-75951500D01*
G75*
G02*
X59653000Y-76201500I0J-250000D01*
G01*
X59653000Y-76701500D01*
G75*
G02*
X59403000Y-76951500I-250000J0D01*
G01*
G37*
%TD*%
M02*
