%TF.GenerationSoftware,KiCad,Pcbnew,(5.1.7)-1*%
%TF.CreationDate,2020-11-02T22:58:22+00:00*%
%TF.ProjectId,STFM-TF536-Relocator+ROM-MkII,5354464d-2d54-4463-9533-362d52656c6f,rev?*%
%TF.SameCoordinates,Original*%
%TF.FileFunction,Legend,Bot*%
%TF.FilePolarity,Positive*%
%FSLAX46Y46*%
G04 Gerber Fmt 4.6, Leading zero omitted, Abs format (unit mm)*
G04 Created by KiCad (PCBNEW (5.1.7)-1) date 2020-11-02 22:58:22*
%MOMM*%
%LPD*%
G01*
G04 APERTURE LIST*
%ADD10C,0.120000*%
%ADD11C,0.150000*%
G04 APERTURE END LIST*
D10*
%TO.C,C9*%
X69178500Y-73843248D02*
X69178500Y-74365752D01*
X70648500Y-73843248D02*
X70648500Y-74365752D01*
%TO.C,C7*%
X88301500Y-77413752D02*
X88301500Y-76891248D01*
X86831500Y-77413752D02*
X86831500Y-76891248D01*
%TO.C,C5*%
X165282748Y-82015000D02*
X165805252Y-82015000D01*
X165282748Y-80545000D02*
X165805252Y-80545000D01*
%TO.C,C4*%
X40667000Y-72573248D02*
X40667000Y-73095752D01*
X42137000Y-72573248D02*
X42137000Y-73095752D01*
%TO.C,C3*%
X154805748Y-82205500D02*
X155328252Y-82205500D01*
X154805748Y-80735500D02*
X155328252Y-80735500D01*
%TO.C,C2*%
X154805748Y-94778500D02*
X155328252Y-94778500D01*
X154805748Y-93308500D02*
X155328252Y-93308500D01*
%TO.C,C1*%
X59663000Y-75762752D02*
X59663000Y-75240248D01*
X58193000Y-75762752D02*
X58193000Y-75240248D01*
%TO.C,C9*%
D11*
X68590642Y-73937833D02*
X68638261Y-73890214D01*
X68685880Y-73747357D01*
X68685880Y-73652119D01*
X68638261Y-73509261D01*
X68543023Y-73414023D01*
X68447785Y-73366404D01*
X68257309Y-73318785D01*
X68114452Y-73318785D01*
X67923976Y-73366404D01*
X67828738Y-73414023D01*
X67733500Y-73509261D01*
X67685880Y-73652119D01*
X67685880Y-73747357D01*
X67733500Y-73890214D01*
X67781119Y-73937833D01*
X68685880Y-74414023D02*
X68685880Y-74604500D01*
X68638261Y-74699738D01*
X68590642Y-74747357D01*
X68447785Y-74842595D01*
X68257309Y-74890214D01*
X67876357Y-74890214D01*
X67781119Y-74842595D01*
X67733500Y-74794976D01*
X67685880Y-74699738D01*
X67685880Y-74509261D01*
X67733500Y-74414023D01*
X67781119Y-74366404D01*
X67876357Y-74318785D01*
X68114452Y-74318785D01*
X68209690Y-74366404D01*
X68257309Y-74414023D01*
X68304928Y-74509261D01*
X68304928Y-74699738D01*
X68257309Y-74794976D01*
X68209690Y-74842595D01*
X68114452Y-74890214D01*
%TO.C,C7*%
X89603642Y-76985833D02*
X89651261Y-76938214D01*
X89698880Y-76795357D01*
X89698880Y-76700119D01*
X89651261Y-76557261D01*
X89556023Y-76462023D01*
X89460785Y-76414404D01*
X89270309Y-76366785D01*
X89127452Y-76366785D01*
X88936976Y-76414404D01*
X88841738Y-76462023D01*
X88746500Y-76557261D01*
X88698880Y-76700119D01*
X88698880Y-76795357D01*
X88746500Y-76938214D01*
X88794119Y-76985833D01*
X88698880Y-77319166D02*
X88698880Y-77985833D01*
X89698880Y-77557261D01*
%TO.C,C5*%
X165710666Y-83317142D02*
X165758285Y-83364761D01*
X165901142Y-83412380D01*
X165996380Y-83412380D01*
X166139238Y-83364761D01*
X166234476Y-83269523D01*
X166282095Y-83174285D01*
X166329714Y-82983809D01*
X166329714Y-82840952D01*
X166282095Y-82650476D01*
X166234476Y-82555238D01*
X166139238Y-82460000D01*
X165996380Y-82412380D01*
X165901142Y-82412380D01*
X165758285Y-82460000D01*
X165710666Y-82507619D01*
X164805904Y-82412380D02*
X165282095Y-82412380D01*
X165329714Y-82888571D01*
X165282095Y-82840952D01*
X165186857Y-82793333D01*
X164948761Y-82793333D01*
X164853523Y-82840952D01*
X164805904Y-82888571D01*
X164758285Y-82983809D01*
X164758285Y-83221904D01*
X164805904Y-83317142D01*
X164853523Y-83364761D01*
X164948761Y-83412380D01*
X165186857Y-83412380D01*
X165282095Y-83364761D01*
X165329714Y-83317142D01*
%TO.C,C4*%
X40079142Y-72667833D02*
X40126761Y-72620214D01*
X40174380Y-72477357D01*
X40174380Y-72382119D01*
X40126761Y-72239261D01*
X40031523Y-72144023D01*
X39936285Y-72096404D01*
X39745809Y-72048785D01*
X39602952Y-72048785D01*
X39412476Y-72096404D01*
X39317238Y-72144023D01*
X39222000Y-72239261D01*
X39174380Y-72382119D01*
X39174380Y-72477357D01*
X39222000Y-72620214D01*
X39269619Y-72667833D01*
X39507714Y-73524976D02*
X40174380Y-73524976D01*
X39126761Y-73286880D02*
X39841047Y-73048785D01*
X39841047Y-73667833D01*
%TO.C,C3*%
X155233666Y-83507642D02*
X155281285Y-83555261D01*
X155424142Y-83602880D01*
X155519380Y-83602880D01*
X155662238Y-83555261D01*
X155757476Y-83460023D01*
X155805095Y-83364785D01*
X155852714Y-83174309D01*
X155852714Y-83031452D01*
X155805095Y-82840976D01*
X155757476Y-82745738D01*
X155662238Y-82650500D01*
X155519380Y-82602880D01*
X155424142Y-82602880D01*
X155281285Y-82650500D01*
X155233666Y-82698119D01*
X154900333Y-82602880D02*
X154281285Y-82602880D01*
X154614619Y-82983833D01*
X154471761Y-82983833D01*
X154376523Y-83031452D01*
X154328904Y-83079071D01*
X154281285Y-83174309D01*
X154281285Y-83412404D01*
X154328904Y-83507642D01*
X154376523Y-83555261D01*
X154471761Y-83602880D01*
X154757476Y-83602880D01*
X154852714Y-83555261D01*
X154900333Y-83507642D01*
%TO.C,C2*%
X155233666Y-96080642D02*
X155281285Y-96128261D01*
X155424142Y-96175880D01*
X155519380Y-96175880D01*
X155662238Y-96128261D01*
X155757476Y-96033023D01*
X155805095Y-95937785D01*
X155852714Y-95747309D01*
X155852714Y-95604452D01*
X155805095Y-95413976D01*
X155757476Y-95318738D01*
X155662238Y-95223500D01*
X155519380Y-95175880D01*
X155424142Y-95175880D01*
X155281285Y-95223500D01*
X155233666Y-95271119D01*
X154852714Y-95271119D02*
X154805095Y-95223500D01*
X154709857Y-95175880D01*
X154471761Y-95175880D01*
X154376523Y-95223500D01*
X154328904Y-95271119D01*
X154281285Y-95366357D01*
X154281285Y-95461595D01*
X154328904Y-95604452D01*
X154900333Y-96175880D01*
X154281285Y-96175880D01*
%TO.C,C1*%
X60965142Y-75334833D02*
X61012761Y-75287214D01*
X61060380Y-75144357D01*
X61060380Y-75049119D01*
X61012761Y-74906261D01*
X60917523Y-74811023D01*
X60822285Y-74763404D01*
X60631809Y-74715785D01*
X60488952Y-74715785D01*
X60298476Y-74763404D01*
X60203238Y-74811023D01*
X60108000Y-74906261D01*
X60060380Y-75049119D01*
X60060380Y-75144357D01*
X60108000Y-75287214D01*
X60155619Y-75334833D01*
X61060380Y-76287214D02*
X61060380Y-75715785D01*
X61060380Y-76001500D02*
X60060380Y-76001500D01*
X60203238Y-75906261D01*
X60298476Y-75811023D01*
X60346095Y-75715785D01*
%TD*%
M02*
