%FSLAX45Y45*%
G04 Gerber Fmt 4.5, Leading zero omitted, Abs format (unit mm)*
G04 Created by KiCad (PCBNEW (5.1.7)-1) date 2020-11-02 22:58:33*
%MOMM*%
%LPD*%
G01*
G04 APERTURE LIST*
%TA.AperFunction,Profile*%
%ADD10C,0.050000*%
%TD*%
%ADD11C,0.200000*%
%ADD12C,0.300000*%
G04 APERTURE END LIST*
D10*
X12992100Y-4394200D02*
X17818100Y-4394200D01*
X12992100Y-8966200D02*
X12992100Y-4394200D01*
X9404350Y-8966200D02*
X12992100Y-8966200D01*
X9404350Y-8966200D02*
X9404350Y-2705100D01*
X3657600Y-13284200D02*
X3657600Y-2705100D01*
X19786600Y-13284200D02*
X3657600Y-13284200D01*
X19786600Y-5791200D02*
X19786600Y-13284200D01*
X17818100Y-5791200D02*
X19786600Y-5791200D01*
X17818100Y-4394200D02*
X17818100Y-5791200D01*
X3657600Y-2705100D02*
X9404350Y-2705100D01*
D11*
X5537030Y-13137810D02*
X5577030Y-13177810D01*
X5577030Y-13137810D02*
X5537030Y-13177810D01*
X5790550Y-7003100D02*
X5830550Y-7043100D01*
X5830550Y-7003100D02*
X5790550Y-7043100D01*
X6856170Y-12285370D02*
X6896170Y-12325370D01*
X6896170Y-12285370D02*
X6856170Y-12325370D01*
X6925950Y-12529580D02*
X6965950Y-12569580D01*
X6965950Y-12529580D02*
X6925950Y-12569580D01*
X6964610Y-12688090D02*
X7004610Y-12728090D01*
X7004610Y-12688090D02*
X6964610Y-12728090D01*
X6966310Y-12314230D02*
X7006310Y-12354230D01*
X7006310Y-12314230D02*
X6966310Y-12354230D01*
X7182860Y-11980090D02*
X7222860Y-12020090D01*
X7222860Y-11980090D02*
X7182860Y-12020090D01*
X7273540Y-12690300D02*
X7313540Y-12730300D01*
X7313540Y-12690300D02*
X7273540Y-12730300D01*
X7381400Y-12692710D02*
X7421400Y-12732710D01*
X7421400Y-12692710D02*
X7381400Y-12732710D01*
X7403440Y-9282340D02*
X7443440Y-9322340D01*
X7443440Y-9282340D02*
X7403440Y-9322340D01*
X7678720Y-11979470D02*
X7718720Y-12019470D01*
X7718720Y-11979470D02*
X7678720Y-12019470D01*
X7738670Y-12229640D02*
X7778670Y-12269640D01*
X7778670Y-12229640D02*
X7738670Y-12269640D01*
X7742530Y-11271060D02*
X7782530Y-11311060D01*
X7782530Y-11271060D02*
X7742530Y-11311060D01*
X7801980Y-10752060D02*
X7841980Y-10792060D01*
X7841980Y-10752060D02*
X7801980Y-10792060D01*
X7858190Y-10956580D02*
X7898190Y-10996580D01*
X7898190Y-10956580D02*
X7858190Y-10996580D01*
X7884500Y-11101650D02*
X7924500Y-11141650D01*
X7924500Y-11101650D02*
X7884500Y-11141650D01*
X7912730Y-12550030D02*
X7952730Y-12590030D01*
X7952730Y-12550030D02*
X7912730Y-12590030D01*
X7940510Y-11362580D02*
X7980510Y-11402580D01*
X7980510Y-11362580D02*
X7940510Y-11402580D01*
X7949110Y-11262540D02*
X7989110Y-11302540D01*
X7989110Y-11262540D02*
X7949110Y-11302540D01*
X7973890Y-11162500D02*
X8013890Y-11202500D01*
X8013890Y-11162500D02*
X7973890Y-11202500D01*
X8081560Y-11834270D02*
X8121560Y-11874270D01*
X8121560Y-11834270D02*
X8081560Y-11874270D01*
X8104440Y-11293220D02*
X8144440Y-11333220D01*
X8144440Y-11293220D02*
X8104440Y-11333220D01*
X8157800Y-11645180D02*
X8197800Y-11685180D01*
X8197800Y-11645180D02*
X8157800Y-11685180D01*
X8189830Y-11980050D02*
X8229830Y-12020050D01*
X8229830Y-11980050D02*
X8189830Y-12020050D01*
X8192060Y-10392790D02*
X8232060Y-10432790D01*
X8232060Y-10392790D02*
X8192060Y-10432790D01*
X8204670Y-10922460D02*
X8244670Y-10962460D01*
X8244670Y-10922460D02*
X8204670Y-10962460D01*
X8244640Y-11699820D02*
X8284640Y-11739820D01*
X8284640Y-11699820D02*
X8244640Y-11739820D01*
X8263200Y-11005420D02*
X8303200Y-11045420D01*
X8303200Y-11005420D02*
X8263200Y-11045420D01*
X8279490Y-12682460D02*
X8319490Y-12722460D01*
X8319490Y-12682460D02*
X8279490Y-12722460D01*
X8349760Y-11187730D02*
X8389760Y-11227730D01*
X8389760Y-11187730D02*
X8349760Y-11227730D01*
X8394770Y-10922460D02*
X8434770Y-10962460D01*
X8434770Y-10922460D02*
X8394770Y-10962460D01*
X8430010Y-11361580D02*
X8470010Y-11401580D01*
X8470010Y-11361580D02*
X8430010Y-11401580D01*
X8475790Y-12059960D02*
X8515790Y-12099960D01*
X8515790Y-12059960D02*
X8475790Y-12099960D01*
X8528880Y-11286010D02*
X8568880Y-11326010D01*
X8568880Y-11286010D02*
X8528880Y-11326010D01*
X8656890Y-6297780D02*
X8696890Y-6337780D01*
X8696890Y-6297780D02*
X8656890Y-6337780D01*
X8720970Y-8844810D02*
X8760970Y-8884810D01*
X8760970Y-8844810D02*
X8720970Y-8884810D01*
X8732880Y-6119220D02*
X8772880Y-6159220D01*
X8772880Y-6119220D02*
X8732880Y-6159220D01*
X8763630Y-9374040D02*
X8803630Y-9414040D01*
X8803630Y-9374040D02*
X8763630Y-9414040D01*
X8767730Y-10446460D02*
X8807730Y-10486460D01*
X8807730Y-10446460D02*
X8767730Y-10486460D01*
X8791630Y-8691150D02*
X8831630Y-8731150D01*
X8831630Y-8691150D02*
X8791630Y-8731150D01*
X9078660Y-12345620D02*
X9118660Y-12385620D01*
X9118660Y-12345620D02*
X9078660Y-12385620D01*
X9478510Y-11194640D02*
X9518510Y-11234640D01*
X9518510Y-11194640D02*
X9478510Y-11234640D01*
X9529330Y-11103990D02*
X9569330Y-11143990D01*
X9569330Y-11103990D02*
X9529330Y-11143990D01*
X9610520Y-9600050D02*
X9650520Y-9640050D01*
X9650520Y-9600050D02*
X9610520Y-9640050D01*
X9629370Y-11103990D02*
X9669370Y-11143990D01*
X9669370Y-11103990D02*
X9629370Y-11143990D01*
X9837610Y-10260070D02*
X9877610Y-10300070D01*
X9877610Y-10260070D02*
X9837610Y-10300070D01*
X10022590Y-10222430D02*
X10062590Y-10262430D01*
X10062590Y-10222430D02*
X10022590Y-10262430D01*
X10495910Y-10411810D02*
X10535910Y-10451810D01*
X10535910Y-10411810D02*
X10495910Y-10451810D01*
X10988320Y-12389260D02*
X11028320Y-12429260D01*
X11028320Y-12389260D02*
X10988320Y-12429260D01*
X11162740Y-12530520D02*
X11202740Y-12570520D01*
X11202740Y-12530520D02*
X11162740Y-12570520D01*
X11195350Y-12790110D02*
X11235350Y-12830110D01*
X11235350Y-12790110D02*
X11195350Y-12830110D01*
X11237760Y-10423780D02*
X11277760Y-10463780D01*
X11277760Y-10423780D02*
X11237760Y-10463780D01*
X11243980Y-12672480D02*
X11283980Y-12712480D01*
X11283980Y-12672480D02*
X11243980Y-12712480D01*
X11308260Y-9011320D02*
X11348260Y-9051320D01*
X11348260Y-9011320D02*
X11308260Y-9051320D01*
X12181270Y-11804390D02*
X12221270Y-11844390D01*
X12221270Y-11804390D02*
X12181270Y-11844390D01*
X13096600Y-11807980D02*
X13136600Y-11847980D01*
X13136600Y-11807980D02*
X13096600Y-11847980D01*
X13212240Y-12052390D02*
X13252240Y-12092390D01*
X13252240Y-12052390D02*
X13212240Y-12092390D01*
X13289300Y-11252840D02*
X13329300Y-11292840D01*
X13329300Y-11252840D02*
X13289300Y-11292840D01*
X13312520Y-9944340D02*
X13352520Y-9984340D01*
X13352520Y-9944340D02*
X13312520Y-9984340D01*
X13377450Y-11714340D02*
X13417450Y-11754340D01*
X13417450Y-11714340D02*
X13377450Y-11754340D01*
X13748640Y-11624340D02*
X13788640Y-11664340D01*
X13788640Y-11624340D02*
X13748640Y-11664340D01*
X13982080Y-11501320D02*
X14022080Y-11541320D01*
X14022080Y-11501320D02*
X13982080Y-11541320D01*
X14125970Y-11575470D02*
X14165970Y-11615470D01*
X14165970Y-11575470D02*
X14125970Y-11615470D01*
X14198500Y-11756570D02*
X14238500Y-11796570D01*
X14238500Y-11756570D02*
X14198500Y-11796570D01*
X14296460Y-11669610D02*
X14336460Y-11709610D01*
X14336460Y-11669610D02*
X14296460Y-11709610D01*
X14900430Y-10505320D02*
X14940430Y-10545320D01*
X14940430Y-10505320D02*
X14900430Y-10545320D01*
X14966000Y-11921960D02*
X15006000Y-11961960D01*
X15006000Y-11921960D02*
X14966000Y-11961960D01*
X16071060Y-10546260D02*
X16111060Y-10586260D01*
X16111060Y-10546260D02*
X16071060Y-10586260D01*
X16621470Y-12530520D02*
X16661470Y-12570520D01*
X16661470Y-12530520D02*
X16621470Y-12570520D01*
X16917330Y-9443600D02*
X16957330Y-9483600D01*
X16957330Y-9443600D02*
X16917330Y-9483600D01*
X17546680Y-9750080D02*
X17586680Y-9790080D01*
X17586680Y-9750080D02*
X17546680Y-9790080D01*
X17588350Y-6907560D02*
X17628350Y-6947560D01*
X17628350Y-6907560D02*
X17588350Y-6947560D01*
X17800850Y-9795110D02*
X17840850Y-9835110D01*
X17840850Y-9795110D02*
X17800850Y-9835110D01*
X17901770Y-9841160D02*
X17941770Y-9881160D01*
X17941770Y-9841160D02*
X17901770Y-9881160D01*
X18014390Y-9852030D02*
X18054390Y-9892030D01*
X18054390Y-9852030D02*
X18014390Y-9892030D01*
X18282090Y-10424330D02*
X18322090Y-10464330D01*
X18322090Y-10424330D02*
X18282090Y-10464330D01*
X18738380Y-10950380D02*
X18778380Y-10990380D01*
X18778380Y-10950380D02*
X18738380Y-10990380D01*
X3914850Y-12306300D02*
G75*
G03*
X3914850Y-12306300I-35000J0D01*
G01*
X4676850Y-12306300D02*
G75*
G03*
X4676850Y-12306300I-35000J0D01*
G01*
X4924500Y-12306300D02*
G75*
G03*
X4924500Y-12306300I-35000J0D01*
G01*
X5686500Y-12306300D02*
G75*
G03*
X5686500Y-12306300I-35000J0D01*
G01*
X18494400Y-9042400D02*
G75*
G03*
X18494400Y-9042400I-35000J0D01*
G01*
X19256400Y-9042400D02*
G75*
G03*
X19256400Y-9042400I-35000J0D01*
G01*
X17034000Y-8128000D02*
G75*
G03*
X17034000Y-8128000I-35000J0D01*
G01*
X17796000Y-8128000D02*
G75*
G03*
X17796000Y-8128000I-35000J0D01*
G01*
X4670500Y-12560300D02*
G75*
G03*
X4670500Y-12560300I-35000J0D01*
G01*
X5432500Y-12560300D02*
G75*
G03*
X5432500Y-12560300I-35000J0D01*
G01*
X6724650Y-3185800D02*
X6724650Y-3265800D01*
X6684650Y-3225800D02*
X6764650Y-3225800D01*
X6724650Y-3439800D02*
X6724650Y-3519800D01*
X6684650Y-3479800D02*
X6764650Y-3479800D01*
X6724650Y-3693800D02*
X6724650Y-3773800D01*
X6684650Y-3733800D02*
X6764650Y-3733800D01*
X6724650Y-3947800D02*
X6724650Y-4027800D01*
X6684650Y-3987800D02*
X6764650Y-3987800D01*
X6724650Y-4201800D02*
X6724650Y-4281800D01*
X6684650Y-4241800D02*
X6764650Y-4241800D01*
X6724650Y-4455800D02*
X6724650Y-4535800D01*
X6684650Y-4495800D02*
X6764650Y-4495800D01*
X6724650Y-4709800D02*
X6724650Y-4789800D01*
X6684650Y-4749800D02*
X6764650Y-4749800D01*
X6724650Y-4963800D02*
X6724650Y-5043800D01*
X6684650Y-5003800D02*
X6764650Y-5003800D01*
X6724650Y-5217800D02*
X6724650Y-5297800D01*
X6684650Y-5257800D02*
X6764650Y-5257800D01*
X6724650Y-5471800D02*
X6724650Y-5551800D01*
X6684650Y-5511800D02*
X6764650Y-5511800D01*
X6724650Y-5725800D02*
X6724650Y-5805800D01*
X6684650Y-5765800D02*
X6764650Y-5765800D01*
X6724650Y-5979800D02*
X6724650Y-6059800D01*
X6684650Y-6019800D02*
X6764650Y-6019800D01*
X6724650Y-6233800D02*
X6724650Y-6313800D01*
X6684650Y-6273800D02*
X6764650Y-6273800D01*
X6724650Y-6487800D02*
X6724650Y-6567800D01*
X6684650Y-6527800D02*
X6764650Y-6527800D01*
X6724650Y-6741800D02*
X6724650Y-6821800D01*
X6684650Y-6781800D02*
X6764650Y-6781800D01*
X6724650Y-6995800D02*
X6724650Y-7075800D01*
X6684650Y-7035800D02*
X6764650Y-7035800D01*
X6724650Y-7249800D02*
X6724650Y-7329800D01*
X6684650Y-7289800D02*
X6764650Y-7289800D01*
X6724650Y-7503800D02*
X6724650Y-7583800D01*
X6684650Y-7543800D02*
X6764650Y-7543800D01*
X6724650Y-7757800D02*
X6724650Y-7837800D01*
X6684650Y-7797800D02*
X6764650Y-7797800D01*
X6724650Y-8011800D02*
X6724650Y-8091800D01*
X6684650Y-8051800D02*
X6764650Y-8051800D01*
X6724650Y-8265800D02*
X6724650Y-8345800D01*
X6684650Y-8305800D02*
X6764650Y-8305800D01*
X6724650Y-8519800D02*
X6724650Y-8599800D01*
X6684650Y-8559800D02*
X6764650Y-8559800D01*
X6724650Y-8773800D02*
X6724650Y-8853800D01*
X6684650Y-8813800D02*
X6764650Y-8813800D01*
X6724650Y-9027800D02*
X6724650Y-9107800D01*
X6684650Y-9067800D02*
X6764650Y-9067800D01*
X6724650Y-9281800D02*
X6724650Y-9361800D01*
X6684650Y-9321800D02*
X6764650Y-9321800D01*
X6724650Y-9535800D02*
X6724650Y-9615800D01*
X6684650Y-9575800D02*
X6764650Y-9575800D01*
X6724650Y-9789800D02*
X6724650Y-9869800D01*
X6684650Y-9829800D02*
X6764650Y-9829800D01*
X6724650Y-10043800D02*
X6724650Y-10123800D01*
X6684650Y-10083800D02*
X6764650Y-10083800D01*
X6724650Y-10297800D02*
X6724650Y-10377800D01*
X6684650Y-10337800D02*
X6764650Y-10337800D01*
X6724650Y-10551800D02*
X6724650Y-10631800D01*
X6684650Y-10591800D02*
X6764650Y-10591800D01*
X6724650Y-10805800D02*
X6724650Y-10885800D01*
X6684650Y-10845800D02*
X6764650Y-10845800D01*
X6724650Y-11059800D02*
X6724650Y-11139800D01*
X6684650Y-11099800D02*
X6764650Y-11099800D01*
X9010650Y-3185800D02*
X9010650Y-3265800D01*
X8970650Y-3225800D02*
X9050650Y-3225800D01*
X9010650Y-3439800D02*
X9010650Y-3519800D01*
X8970650Y-3479800D02*
X9050650Y-3479800D01*
X9010650Y-3693800D02*
X9010650Y-3773800D01*
X8970650Y-3733800D02*
X9050650Y-3733800D01*
X9010650Y-3947800D02*
X9010650Y-4027800D01*
X8970650Y-3987800D02*
X9050650Y-3987800D01*
X9010650Y-4201800D02*
X9010650Y-4281800D01*
X8970650Y-4241800D02*
X9050650Y-4241800D01*
X9010650Y-4455800D02*
X9010650Y-4535800D01*
X8970650Y-4495800D02*
X9050650Y-4495800D01*
X9010650Y-4709800D02*
X9010650Y-4789800D01*
X8970650Y-4749800D02*
X9050650Y-4749800D01*
X9010650Y-4963800D02*
X9010650Y-5043800D01*
X8970650Y-5003800D02*
X9050650Y-5003800D01*
X9010650Y-5217800D02*
X9010650Y-5297800D01*
X8970650Y-5257800D02*
X9050650Y-5257800D01*
X9010650Y-5471800D02*
X9010650Y-5551800D01*
X8970650Y-5511800D02*
X9050650Y-5511800D01*
X9010650Y-5725800D02*
X9010650Y-5805800D01*
X8970650Y-5765800D02*
X9050650Y-5765800D01*
X9010650Y-5979800D02*
X9010650Y-6059800D01*
X8970650Y-6019800D02*
X9050650Y-6019800D01*
X9010650Y-6233800D02*
X9010650Y-6313800D01*
X8970650Y-6273800D02*
X9050650Y-6273800D01*
X9010650Y-6487800D02*
X9010650Y-6567800D01*
X8970650Y-6527800D02*
X9050650Y-6527800D01*
X9010650Y-6741800D02*
X9010650Y-6821800D01*
X8970650Y-6781800D02*
X9050650Y-6781800D01*
X9010650Y-6995800D02*
X9010650Y-7075800D01*
X8970650Y-7035800D02*
X9050650Y-7035800D01*
X9010650Y-7249800D02*
X9010650Y-7329800D01*
X8970650Y-7289800D02*
X9050650Y-7289800D01*
X9010650Y-7503800D02*
X9010650Y-7583800D01*
X8970650Y-7543800D02*
X9050650Y-7543800D01*
X9010650Y-7757800D02*
X9010650Y-7837800D01*
X8970650Y-7797800D02*
X9050650Y-7797800D01*
X9010650Y-8011800D02*
X9010650Y-8091800D01*
X8970650Y-8051800D02*
X9050650Y-8051800D01*
X9010650Y-8265800D02*
X9010650Y-8345800D01*
X8970650Y-8305800D02*
X9050650Y-8305800D01*
X9010650Y-8519800D02*
X9010650Y-8599800D01*
X8970650Y-8559800D02*
X9050650Y-8559800D01*
X9010650Y-8773800D02*
X9010650Y-8853800D01*
X8970650Y-8813800D02*
X9050650Y-8813800D01*
X9010650Y-9027800D02*
X9010650Y-9107800D01*
X8970650Y-9067800D02*
X9050650Y-9067800D01*
X9010650Y-9281800D02*
X9010650Y-9361800D01*
X8970650Y-9321800D02*
X9050650Y-9321800D01*
X9010650Y-9535800D02*
X9010650Y-9615800D01*
X8970650Y-9575800D02*
X9050650Y-9575800D01*
X9010650Y-9789800D02*
X9010650Y-9869800D01*
X8970650Y-9829800D02*
X9050650Y-9829800D01*
X9010650Y-10043800D02*
X9010650Y-10123800D01*
X8970650Y-10083800D02*
X9050650Y-10083800D01*
X9010650Y-10297800D02*
X9010650Y-10377800D01*
X8970650Y-10337800D02*
X9050650Y-10337800D01*
X9010650Y-10551800D02*
X9010650Y-10631800D01*
X8970650Y-10591800D02*
X9050650Y-10591800D01*
X9010650Y-10805800D02*
X9010650Y-10885800D01*
X8970650Y-10845800D02*
X9050650Y-10845800D01*
X9010650Y-11059800D02*
X9010650Y-11139800D01*
X8970650Y-11099800D02*
X9050650Y-11099800D01*
X15665400Y-6100450D02*
X15665400Y-6180450D01*
X15625400Y-6140450D02*
X15705400Y-6140450D01*
X15665400Y-6354450D02*
X15665400Y-6434450D01*
X15625400Y-6394450D02*
X15705400Y-6394450D01*
X15665400Y-6608450D02*
X15665400Y-6688450D01*
X15625400Y-6648450D02*
X15705400Y-6648450D01*
X15665400Y-6862450D02*
X15665400Y-6942450D01*
X15625400Y-6902450D02*
X15705400Y-6902450D01*
X15665400Y-7116450D02*
X15665400Y-7196450D01*
X15625400Y-7156450D02*
X15705400Y-7156450D01*
X15665400Y-7370450D02*
X15665400Y-7450450D01*
X15625400Y-7410450D02*
X15705400Y-7410450D01*
X15919400Y-5846450D02*
X15919400Y-5926450D01*
X15879400Y-5886450D02*
X15959400Y-5886450D01*
X15919400Y-6100450D02*
X15919400Y-6180450D01*
X15879400Y-6140450D02*
X15959400Y-6140450D01*
X15919400Y-6354450D02*
X15919400Y-6434450D01*
X15879400Y-6394450D02*
X15959400Y-6394450D01*
X15919400Y-6608450D02*
X15919400Y-6688450D01*
X15879400Y-6648450D02*
X15959400Y-6648450D01*
X15919400Y-6862450D02*
X15919400Y-6942450D01*
X15879400Y-6902450D02*
X15959400Y-6902450D01*
X15919400Y-7116450D02*
X15919400Y-7196450D01*
X15879400Y-7156450D02*
X15959400Y-7156450D01*
X15919400Y-7370450D02*
X15919400Y-7450450D01*
X15879400Y-7410450D02*
X15959400Y-7410450D01*
X15919400Y-7624450D02*
X15919400Y-7704450D01*
X15879400Y-7664450D02*
X15959400Y-7664450D01*
X16173400Y-5846450D02*
X16173400Y-5926450D01*
X16133400Y-5886450D02*
X16213400Y-5886450D01*
X16173400Y-6100450D02*
X16173400Y-6180450D01*
X16133400Y-6140450D02*
X16213400Y-6140450D01*
X16173400Y-7370450D02*
X16173400Y-7450450D01*
X16133400Y-7410450D02*
X16213400Y-7410450D01*
X16173400Y-7624450D02*
X16173400Y-7704450D01*
X16133400Y-7664450D02*
X16213400Y-7664450D01*
X16427400Y-5846450D02*
X16427400Y-5926450D01*
X16387400Y-5886450D02*
X16467400Y-5886450D01*
X16427400Y-6100450D02*
X16427400Y-6180450D01*
X16387400Y-6140450D02*
X16467400Y-6140450D01*
X16427400Y-7370450D02*
X16427400Y-7450450D01*
X16387400Y-7410450D02*
X16467400Y-7410450D01*
X16427400Y-7624450D02*
X16427400Y-7704450D01*
X16387400Y-7664450D02*
X16467400Y-7664450D01*
X16681400Y-5846450D02*
X16681400Y-5926450D01*
X16641400Y-5886450D02*
X16721400Y-5886450D01*
X16681400Y-6100450D02*
X16681400Y-6180450D01*
X16641400Y-6140450D02*
X16721400Y-6140450D01*
X16681400Y-7370450D02*
X16681400Y-7450450D01*
X16641400Y-7410450D02*
X16721400Y-7410450D01*
X16681400Y-7624450D02*
X16681400Y-7704450D01*
X16641400Y-7664450D02*
X16721400Y-7664450D01*
X16935400Y-5846450D02*
X16935400Y-5926450D01*
X16895400Y-5886450D02*
X16975400Y-5886450D01*
X16935400Y-6100450D02*
X16935400Y-6180450D01*
X16895400Y-6140450D02*
X16975400Y-6140450D01*
X16935400Y-7370450D02*
X16935400Y-7450450D01*
X16895400Y-7410450D02*
X16975400Y-7410450D01*
X16935400Y-7624450D02*
X16935400Y-7704450D01*
X16895400Y-7664450D02*
X16975400Y-7664450D01*
X17189400Y-5846450D02*
X17189400Y-5926450D01*
X17149400Y-5886450D02*
X17229400Y-5886450D01*
X17189400Y-6100450D02*
X17189400Y-6180450D01*
X17149400Y-6140450D02*
X17229400Y-6140450D01*
X17189400Y-6354450D02*
X17189400Y-6434450D01*
X17149400Y-6394450D02*
X17229400Y-6394450D01*
X17189400Y-6608450D02*
X17189400Y-6688450D01*
X17149400Y-6648450D02*
X17229400Y-6648450D01*
X17189400Y-6862450D02*
X17189400Y-6942450D01*
X17149400Y-6902450D02*
X17229400Y-6902450D01*
X17189400Y-7116450D02*
X17189400Y-7196450D01*
X17149400Y-7156450D02*
X17229400Y-7156450D01*
X17189400Y-7370450D02*
X17189400Y-7450450D01*
X17149400Y-7410450D02*
X17229400Y-7410450D01*
X17189400Y-7624450D02*
X17189400Y-7704450D01*
X17149400Y-7664450D02*
X17229400Y-7664450D01*
X17443400Y-6100450D02*
X17443400Y-6180450D01*
X17403400Y-6140450D02*
X17483400Y-6140450D01*
X17443400Y-6354450D02*
X17443400Y-6434450D01*
X17403400Y-6394450D02*
X17483400Y-6394450D01*
X17443400Y-6608450D02*
X17443400Y-6688450D01*
X17403400Y-6648450D02*
X17483400Y-6648450D01*
X17443400Y-6862450D02*
X17443400Y-6942450D01*
X17403400Y-6902450D02*
X17483400Y-6902450D01*
X17443400Y-7116450D02*
X17443400Y-7196450D01*
X17403400Y-7156450D02*
X17483400Y-7156450D01*
X17443400Y-7370450D02*
X17443400Y-7450450D01*
X17403400Y-7410450D02*
X17483400Y-7410450D01*
X15417800Y-8329300D02*
X15417800Y-8409300D01*
X15377800Y-8369300D02*
X15457800Y-8369300D01*
X15417800Y-9091300D02*
X15417800Y-9171300D01*
X15377800Y-9131300D02*
X15457800Y-9131300D01*
X15671800Y-8329300D02*
X15671800Y-8409300D01*
X15631800Y-8369300D02*
X15711800Y-8369300D01*
X15671800Y-9091300D02*
X15671800Y-9171300D01*
X15631800Y-9131300D02*
X15711800Y-9131300D01*
X15925800Y-8329300D02*
X15925800Y-8409300D01*
X15885800Y-8369300D02*
X15965800Y-8369300D01*
X15925800Y-9091300D02*
X15925800Y-9171300D01*
X15885800Y-9131300D02*
X15965800Y-9131300D01*
X16179800Y-8329300D02*
X16179800Y-8409300D01*
X16139800Y-8369300D02*
X16219800Y-8369300D01*
X16179800Y-9091300D02*
X16179800Y-9171300D01*
X16139800Y-9131300D02*
X16219800Y-9131300D01*
X16433800Y-8329300D02*
X16433800Y-8409300D01*
X16393800Y-8369300D02*
X16473800Y-8369300D01*
X16433800Y-9091300D02*
X16433800Y-9171300D01*
X16393800Y-9131300D02*
X16473800Y-9131300D01*
X16687800Y-8329300D02*
X16687800Y-8409300D01*
X16647800Y-8369300D02*
X16727800Y-8369300D01*
X16687800Y-9091300D02*
X16687800Y-9171300D01*
X16647800Y-9131300D02*
X16727800Y-9131300D01*
X16941800Y-8329300D02*
X16941800Y-8409300D01*
X16901800Y-8369300D02*
X16981800Y-8369300D01*
X16941800Y-9091300D02*
X16941800Y-9171300D01*
X16901800Y-9131300D02*
X16981800Y-9131300D01*
X17195800Y-8329300D02*
X17195800Y-8409300D01*
X17155800Y-8369300D02*
X17235800Y-8369300D01*
X17195800Y-9091300D02*
X17195800Y-9171300D01*
X17155800Y-9131300D02*
X17235800Y-9131300D01*
X17449800Y-8329300D02*
X17449800Y-8409300D01*
X17409800Y-8369300D02*
X17489800Y-8369300D01*
X17449800Y-9091300D02*
X17449800Y-9171300D01*
X17409800Y-9131300D02*
X17489800Y-9131300D01*
X17703800Y-8329300D02*
X17703800Y-8409300D01*
X17663800Y-8369300D02*
X17743800Y-8369300D01*
X17703800Y-9091300D02*
X17703800Y-9171300D01*
X17663800Y-9131300D02*
X17743800Y-9131300D01*
X11430000Y-10678800D02*
X11430000Y-10758800D01*
X11390000Y-10718800D02*
X11470000Y-10718800D01*
X11430000Y-12964800D02*
X11430000Y-13044800D01*
X11390000Y-13004800D02*
X11470000Y-13004800D01*
X11684000Y-10678800D02*
X11684000Y-10758800D01*
X11644000Y-10718800D02*
X11724000Y-10718800D01*
X11684000Y-12964800D02*
X11684000Y-13044800D01*
X11644000Y-13004800D02*
X11724000Y-13004800D01*
X11938000Y-10678800D02*
X11938000Y-10758800D01*
X11898000Y-10718800D02*
X11978000Y-10718800D01*
X11938000Y-12964800D02*
X11938000Y-13044800D01*
X11898000Y-13004800D02*
X11978000Y-13004800D01*
X12192000Y-10678800D02*
X12192000Y-10758800D01*
X12152000Y-10718800D02*
X12232000Y-10718800D01*
X12192000Y-12964800D02*
X12192000Y-13044800D01*
X12152000Y-13004800D02*
X12232000Y-13004800D01*
X12446000Y-10678800D02*
X12446000Y-10758800D01*
X12406000Y-10718800D02*
X12486000Y-10718800D01*
X12446000Y-12964800D02*
X12446000Y-13044800D01*
X12406000Y-13004800D02*
X12486000Y-13004800D01*
X12700000Y-10678800D02*
X12700000Y-10758800D01*
X12660000Y-10718800D02*
X12740000Y-10718800D01*
X12700000Y-12964800D02*
X12700000Y-13044800D01*
X12660000Y-13004800D02*
X12740000Y-13004800D01*
X12954000Y-10678800D02*
X12954000Y-10758800D01*
X12914000Y-10718800D02*
X12994000Y-10718800D01*
X12954000Y-12964800D02*
X12954000Y-13044800D01*
X12914000Y-13004800D02*
X12994000Y-13004800D01*
X13208000Y-10678800D02*
X13208000Y-10758800D01*
X13168000Y-10718800D02*
X13248000Y-10718800D01*
X13208000Y-12964800D02*
X13208000Y-13044800D01*
X13168000Y-13004800D02*
X13248000Y-13004800D01*
X13462000Y-10678800D02*
X13462000Y-10758800D01*
X13422000Y-10718800D02*
X13502000Y-10718800D01*
X13462000Y-12964800D02*
X13462000Y-13044800D01*
X13422000Y-13004800D02*
X13502000Y-13004800D01*
X13716000Y-10678800D02*
X13716000Y-10758800D01*
X13676000Y-10718800D02*
X13756000Y-10718800D01*
X13716000Y-12964800D02*
X13716000Y-13044800D01*
X13676000Y-13004800D02*
X13756000Y-13004800D01*
X13970000Y-10678800D02*
X13970000Y-10758800D01*
X13930000Y-10718800D02*
X14010000Y-10718800D01*
X13970000Y-12964800D02*
X13970000Y-13044800D01*
X13930000Y-13004800D02*
X14010000Y-13004800D01*
X14224000Y-10678800D02*
X14224000Y-10758800D01*
X14184000Y-10718800D02*
X14264000Y-10718800D01*
X14224000Y-12964800D02*
X14224000Y-13044800D01*
X14184000Y-13004800D02*
X14264000Y-13004800D01*
X14478000Y-10678800D02*
X14478000Y-10758800D01*
X14438000Y-10718800D02*
X14518000Y-10718800D01*
X14478000Y-12964800D02*
X14478000Y-13044800D01*
X14438000Y-13004800D02*
X14518000Y-13004800D01*
X14732000Y-10678800D02*
X14732000Y-10758800D01*
X14692000Y-10718800D02*
X14772000Y-10718800D01*
X14732000Y-12964800D02*
X14732000Y-13044800D01*
X14692000Y-13004800D02*
X14772000Y-13004800D01*
X14986000Y-10678800D02*
X14986000Y-10758800D01*
X14946000Y-10718800D02*
X15026000Y-10718800D01*
X14986000Y-12964800D02*
X14986000Y-13044800D01*
X14946000Y-13004800D02*
X15026000Y-13004800D01*
X15240000Y-10678800D02*
X15240000Y-10758800D01*
X15200000Y-10718800D02*
X15280000Y-10718800D01*
X15240000Y-12964800D02*
X15240000Y-13044800D01*
X15200000Y-13004800D02*
X15280000Y-13004800D01*
X15494000Y-10678800D02*
X15494000Y-10758800D01*
X15454000Y-10718800D02*
X15534000Y-10718800D01*
X15494000Y-12964800D02*
X15494000Y-13044800D01*
X15454000Y-13004800D02*
X15534000Y-13004800D01*
X15748000Y-10678800D02*
X15748000Y-10758800D01*
X15708000Y-10718800D02*
X15788000Y-10718800D01*
X15748000Y-12964800D02*
X15748000Y-13044800D01*
X15708000Y-13004800D02*
X15788000Y-13004800D01*
X16002000Y-10678800D02*
X16002000Y-10758800D01*
X15962000Y-10718800D02*
X16042000Y-10718800D01*
X16002000Y-12964800D02*
X16002000Y-13044800D01*
X15962000Y-13004800D02*
X16042000Y-13004800D01*
X16256000Y-10678800D02*
X16256000Y-10758800D01*
X16216000Y-10718800D02*
X16296000Y-10718800D01*
X16256000Y-12964800D02*
X16256000Y-13044800D01*
X16216000Y-13004800D02*
X16296000Y-13004800D01*
X16510000Y-10678800D02*
X16510000Y-10758800D01*
X16470000Y-10718800D02*
X16550000Y-10718800D01*
X16510000Y-12964800D02*
X16510000Y-13044800D01*
X16470000Y-13004800D02*
X16550000Y-13004800D01*
X16764000Y-10678800D02*
X16764000Y-10758800D01*
X16724000Y-10718800D02*
X16804000Y-10718800D01*
X16764000Y-12964800D02*
X16764000Y-13044800D01*
X16724000Y-13004800D02*
X16804000Y-13004800D01*
X17018000Y-10678800D02*
X17018000Y-10758800D01*
X16978000Y-10718800D02*
X17058000Y-10718800D01*
X17018000Y-12964800D02*
X17018000Y-13044800D01*
X16978000Y-13004800D02*
X17058000Y-13004800D01*
X17272000Y-10678800D02*
X17272000Y-10758800D01*
X17232000Y-10718800D02*
X17312000Y-10718800D01*
X17272000Y-12964800D02*
X17272000Y-13044800D01*
X17232000Y-13004800D02*
X17312000Y-13004800D01*
X17526000Y-10678800D02*
X17526000Y-10758800D01*
X17486000Y-10718800D02*
X17566000Y-10718800D01*
X17526000Y-12964800D02*
X17526000Y-13044800D01*
X17486000Y-13004800D02*
X17566000Y-13004800D01*
X17780000Y-10678800D02*
X17780000Y-10758800D01*
X17740000Y-10718800D02*
X17820000Y-10718800D01*
X17780000Y-12964800D02*
X17780000Y-13044800D01*
X17740000Y-13004800D02*
X17820000Y-13004800D01*
X18034000Y-10678800D02*
X18034000Y-10758800D01*
X17994000Y-10718800D02*
X18074000Y-10718800D01*
X18034000Y-12964800D02*
X18034000Y-13044800D01*
X17994000Y-13004800D02*
X18074000Y-13004800D01*
X18288000Y-10678800D02*
X18288000Y-10758800D01*
X18248000Y-10718800D02*
X18328000Y-10718800D01*
X18288000Y-12964800D02*
X18288000Y-13044800D01*
X18248000Y-13004800D02*
X18328000Y-13004800D01*
X18542000Y-10678800D02*
X18542000Y-10758800D01*
X18502000Y-10718800D02*
X18582000Y-10718800D01*
X18542000Y-12964800D02*
X18542000Y-13044800D01*
X18502000Y-13004800D02*
X18582000Y-13004800D01*
X18796000Y-10678800D02*
X18796000Y-10758800D01*
X18756000Y-10718800D02*
X18836000Y-10718800D01*
X18796000Y-12964800D02*
X18796000Y-13044800D01*
X18756000Y-13004800D02*
X18836000Y-13004800D01*
X19050000Y-10678800D02*
X19050000Y-10758800D01*
X19010000Y-10718800D02*
X19090000Y-10718800D01*
X19050000Y-12964800D02*
X19050000Y-13044800D01*
X19010000Y-13004800D02*
X19090000Y-13004800D01*
X19304000Y-10678800D02*
X19304000Y-10758800D01*
X19264000Y-10718800D02*
X19344000Y-10718800D01*
X19304000Y-12964800D02*
X19304000Y-13044800D01*
X19264000Y-13004800D02*
X19344000Y-13004800D01*
X3873500Y-3046100D02*
X3873500Y-3126100D01*
X3833500Y-3086100D02*
X3913500Y-3086100D01*
X3873500Y-3300100D02*
X3873500Y-3380100D01*
X3833500Y-3340100D02*
X3913500Y-3340100D01*
X3873500Y-3554100D02*
X3873500Y-3634100D01*
X3833500Y-3594100D02*
X3913500Y-3594100D01*
X3873500Y-3808100D02*
X3873500Y-3888100D01*
X3833500Y-3848100D02*
X3913500Y-3848100D01*
X3873500Y-4062100D02*
X3873500Y-4142100D01*
X3833500Y-4102100D02*
X3913500Y-4102100D01*
X3873500Y-4316100D02*
X3873500Y-4396100D01*
X3833500Y-4356100D02*
X3913500Y-4356100D01*
X3873500Y-4570100D02*
X3873500Y-4650100D01*
X3833500Y-4610100D02*
X3913500Y-4610100D01*
X3873500Y-4824100D02*
X3873500Y-4904100D01*
X3833500Y-4864100D02*
X3913500Y-4864100D01*
X3873500Y-5078100D02*
X3873500Y-5158100D01*
X3833500Y-5118100D02*
X3913500Y-5118100D01*
X3873500Y-5332100D02*
X3873500Y-5412100D01*
X3833500Y-5372100D02*
X3913500Y-5372100D01*
X3873500Y-5586100D02*
X3873500Y-5666100D01*
X3833500Y-5626100D02*
X3913500Y-5626100D01*
X3873500Y-5840100D02*
X3873500Y-5920100D01*
X3833500Y-5880100D02*
X3913500Y-5880100D01*
X3873500Y-6094100D02*
X3873500Y-6174100D01*
X3833500Y-6134100D02*
X3913500Y-6134100D01*
X3873500Y-6348100D02*
X3873500Y-6428100D01*
X3833500Y-6388100D02*
X3913500Y-6388100D01*
X3873500Y-6602100D02*
X3873500Y-6682100D01*
X3833500Y-6642100D02*
X3913500Y-6642100D01*
X3873500Y-6856100D02*
X3873500Y-6936100D01*
X3833500Y-6896100D02*
X3913500Y-6896100D01*
X3873500Y-7110100D02*
X3873500Y-7190100D01*
X3833500Y-7150100D02*
X3913500Y-7150100D01*
X3873500Y-7364100D02*
X3873500Y-7444100D01*
X3833500Y-7404100D02*
X3913500Y-7404100D01*
X3873500Y-7618100D02*
X3873500Y-7698100D01*
X3833500Y-7658100D02*
X3913500Y-7658100D01*
X3873500Y-7872100D02*
X3873500Y-7952100D01*
X3833500Y-7912100D02*
X3913500Y-7912100D01*
X3873500Y-8126100D02*
X3873500Y-8206100D01*
X3833500Y-8166100D02*
X3913500Y-8166100D01*
X3873500Y-8380100D02*
X3873500Y-8460100D01*
X3833500Y-8420100D02*
X3913500Y-8420100D01*
X3873500Y-8634100D02*
X3873500Y-8714100D01*
X3833500Y-8674100D02*
X3913500Y-8674100D01*
X3873500Y-8888100D02*
X3873500Y-8968100D01*
X3833500Y-8928100D02*
X3913500Y-8928100D01*
X3873500Y-9142100D02*
X3873500Y-9222100D01*
X3833500Y-9182100D02*
X3913500Y-9182100D01*
X3873500Y-9396100D02*
X3873500Y-9476100D01*
X3833500Y-9436100D02*
X3913500Y-9436100D01*
X3873500Y-9650100D02*
X3873500Y-9730100D01*
X3833500Y-9690100D02*
X3913500Y-9690100D01*
X3873500Y-9904100D02*
X3873500Y-9984100D01*
X3833500Y-9944100D02*
X3913500Y-9944100D01*
X3873500Y-10158100D02*
X3873500Y-10238100D01*
X3833500Y-10198100D02*
X3913500Y-10198100D01*
X3873500Y-10412100D02*
X3873500Y-10492100D01*
X3833500Y-10452100D02*
X3913500Y-10452100D01*
X3873500Y-10666100D02*
X3873500Y-10746100D01*
X3833500Y-10706100D02*
X3913500Y-10706100D01*
X3873500Y-10920100D02*
X3873500Y-11000100D01*
X3833500Y-10960100D02*
X3913500Y-10960100D01*
X6159500Y-3046100D02*
X6159500Y-3126100D01*
X6119500Y-3086100D02*
X6199500Y-3086100D01*
X6159500Y-3300100D02*
X6159500Y-3380100D01*
X6119500Y-3340100D02*
X6199500Y-3340100D01*
X6159500Y-3554100D02*
X6159500Y-3634100D01*
X6119500Y-3594100D02*
X6199500Y-3594100D01*
X6159500Y-3808100D02*
X6159500Y-3888100D01*
X6119500Y-3848100D02*
X6199500Y-3848100D01*
X6159500Y-4062100D02*
X6159500Y-4142100D01*
X6119500Y-4102100D02*
X6199500Y-4102100D01*
X6159500Y-4316100D02*
X6159500Y-4396100D01*
X6119500Y-4356100D02*
X6199500Y-4356100D01*
X6159500Y-4570100D02*
X6159500Y-4650100D01*
X6119500Y-4610100D02*
X6199500Y-4610100D01*
X6159500Y-4824100D02*
X6159500Y-4904100D01*
X6119500Y-4864100D02*
X6199500Y-4864100D01*
X6159500Y-5078100D02*
X6159500Y-5158100D01*
X6119500Y-5118100D02*
X6199500Y-5118100D01*
X6159500Y-5332100D02*
X6159500Y-5412100D01*
X6119500Y-5372100D02*
X6199500Y-5372100D01*
X6159500Y-5586100D02*
X6159500Y-5666100D01*
X6119500Y-5626100D02*
X6199500Y-5626100D01*
X6159500Y-5840100D02*
X6159500Y-5920100D01*
X6119500Y-5880100D02*
X6199500Y-5880100D01*
X6159500Y-6094100D02*
X6159500Y-6174100D01*
X6119500Y-6134100D02*
X6199500Y-6134100D01*
X6159500Y-6348100D02*
X6159500Y-6428100D01*
X6119500Y-6388100D02*
X6199500Y-6388100D01*
X6159500Y-6602100D02*
X6159500Y-6682100D01*
X6119500Y-6642100D02*
X6199500Y-6642100D01*
X6159500Y-6856100D02*
X6159500Y-6936100D01*
X6119500Y-6896100D02*
X6199500Y-6896100D01*
X6159500Y-7110100D02*
X6159500Y-7190100D01*
X6119500Y-7150100D02*
X6199500Y-7150100D01*
X6159500Y-7364100D02*
X6159500Y-7444100D01*
X6119500Y-7404100D02*
X6199500Y-7404100D01*
X6159500Y-7618100D02*
X6159500Y-7698100D01*
X6119500Y-7658100D02*
X6199500Y-7658100D01*
X6159500Y-7872100D02*
X6159500Y-7952100D01*
X6119500Y-7912100D02*
X6199500Y-7912100D01*
X6159500Y-8126100D02*
X6159500Y-8206100D01*
X6119500Y-8166100D02*
X6199500Y-8166100D01*
X6159500Y-8380100D02*
X6159500Y-8460100D01*
X6119500Y-8420100D02*
X6199500Y-8420100D01*
X6159500Y-8634100D02*
X6159500Y-8714100D01*
X6119500Y-8674100D02*
X6199500Y-8674100D01*
X6159500Y-8888100D02*
X6159500Y-8968100D01*
X6119500Y-8928100D02*
X6199500Y-8928100D01*
X6159500Y-9142100D02*
X6159500Y-9222100D01*
X6119500Y-9182100D02*
X6199500Y-9182100D01*
X6159500Y-9396100D02*
X6159500Y-9476100D01*
X6119500Y-9436100D02*
X6199500Y-9436100D01*
X6159500Y-9650100D02*
X6159500Y-9730100D01*
X6119500Y-9690100D02*
X6199500Y-9690100D01*
X6159500Y-9904100D02*
X6159500Y-9984100D01*
X6119500Y-9944100D02*
X6199500Y-9944100D01*
X6159500Y-10158100D02*
X6159500Y-10238100D01*
X6119500Y-10198100D02*
X6199500Y-10198100D01*
X6159500Y-10412100D02*
X6159500Y-10492100D01*
X6119500Y-10452100D02*
X6199500Y-10452100D01*
X6159500Y-10666100D02*
X6159500Y-10746100D01*
X6119500Y-10706100D02*
X6199500Y-10706100D01*
X6159500Y-10920100D02*
X6159500Y-11000100D01*
X6119500Y-10960100D02*
X6199500Y-10960100D01*
X3879850Y-11250300D02*
X3879850Y-11330300D01*
X3839850Y-11290300D02*
X3919850Y-11290300D01*
X3879850Y-12012300D02*
X3879850Y-12092300D01*
X3839850Y-12052300D02*
X3919850Y-12052300D01*
X4133850Y-11250300D02*
X4133850Y-11330300D01*
X4093850Y-11290300D02*
X4173850Y-11290300D01*
X4133850Y-12012300D02*
X4133850Y-12092300D01*
X4093850Y-12052300D02*
X4173850Y-12052300D01*
X4387850Y-11250300D02*
X4387850Y-11330300D01*
X4347850Y-11290300D02*
X4427850Y-11290300D01*
X4387850Y-12012300D02*
X4387850Y-12092300D01*
X4347850Y-12052300D02*
X4427850Y-12052300D01*
X4641850Y-11250300D02*
X4641850Y-11330300D01*
X4601850Y-11290300D02*
X4681850Y-11290300D01*
X4641850Y-12012300D02*
X4641850Y-12092300D01*
X4601850Y-12052300D02*
X4681850Y-12052300D01*
X4895850Y-11250300D02*
X4895850Y-11330300D01*
X4855850Y-11290300D02*
X4935850Y-11290300D01*
X4895850Y-12012300D02*
X4895850Y-12092300D01*
X4855850Y-12052300D02*
X4935850Y-12052300D01*
X5149850Y-11250300D02*
X5149850Y-11330300D01*
X5109850Y-11290300D02*
X5189850Y-11290300D01*
X5149850Y-12012300D02*
X5149850Y-12092300D01*
X5109850Y-12052300D02*
X5189850Y-12052300D01*
X5403850Y-11250300D02*
X5403850Y-11330300D01*
X5363850Y-11290300D02*
X5443850Y-11290300D01*
X5403850Y-12012300D02*
X5403850Y-12092300D01*
X5363850Y-12052300D02*
X5443850Y-12052300D01*
X5657850Y-11250300D02*
X5657850Y-11330300D01*
X5617850Y-11290300D02*
X5697850Y-11290300D01*
X5657850Y-12012300D02*
X5657850Y-12092300D01*
X5617850Y-12052300D02*
X5697850Y-12052300D01*
X5911850Y-11250300D02*
X5911850Y-11330300D01*
X5871850Y-11290300D02*
X5951850Y-11290300D01*
X5911850Y-12012300D02*
X5911850Y-12092300D01*
X5871850Y-12052300D02*
X5951850Y-12052300D01*
X6165850Y-11250300D02*
X6165850Y-11330300D01*
X6125850Y-11290300D02*
X6205850Y-11290300D01*
X6165850Y-12012300D02*
X6165850Y-12092300D01*
X6125850Y-12052300D02*
X6205850Y-12052300D01*
X15411400Y-9573900D02*
X15411400Y-9653900D01*
X15371400Y-9613900D02*
X15451400Y-9613900D01*
X15411400Y-10335900D02*
X15411400Y-10415900D01*
X15371400Y-10375900D02*
X15451400Y-10375900D01*
X15665400Y-9573900D02*
X15665400Y-9653900D01*
X15625400Y-9613900D02*
X15705400Y-9613900D01*
X15665400Y-10335900D02*
X15665400Y-10415900D01*
X15625400Y-10375900D02*
X15705400Y-10375900D01*
X15919400Y-9573900D02*
X15919400Y-9653900D01*
X15879400Y-9613900D02*
X15959400Y-9613900D01*
X15919400Y-10335900D02*
X15919400Y-10415900D01*
X15879400Y-10375900D02*
X15959400Y-10375900D01*
X16173400Y-9573900D02*
X16173400Y-9653900D01*
X16133400Y-9613900D02*
X16213400Y-9613900D01*
X16173400Y-10335900D02*
X16173400Y-10415900D01*
X16133400Y-10375900D02*
X16213400Y-10375900D01*
X16427400Y-9573900D02*
X16427400Y-9653900D01*
X16387400Y-9613900D02*
X16467400Y-9613900D01*
X16427400Y-10335900D02*
X16427400Y-10415900D01*
X16387400Y-10375900D02*
X16467400Y-10375900D01*
X16681400Y-9573900D02*
X16681400Y-9653900D01*
X16641400Y-9613900D02*
X16721400Y-9613900D01*
X16681400Y-10335900D02*
X16681400Y-10415900D01*
X16641400Y-10375900D02*
X16721400Y-10375900D01*
X16935400Y-9573900D02*
X16935400Y-9653900D01*
X16895400Y-9613900D02*
X16975400Y-9613900D01*
X16935400Y-10335900D02*
X16935400Y-10415900D01*
X16895400Y-10375900D02*
X16975400Y-10375900D01*
X17189400Y-9573900D02*
X17189400Y-9653900D01*
X17149400Y-9613900D02*
X17229400Y-9613900D01*
X17189400Y-10335900D02*
X17189400Y-10415900D01*
X17149400Y-10375900D02*
X17229400Y-10375900D01*
X17443400Y-9573900D02*
X17443400Y-9653900D01*
X17403400Y-9613900D02*
X17483400Y-9613900D01*
X17443400Y-10335900D02*
X17443400Y-10415900D01*
X17403400Y-10375900D02*
X17483400Y-10375900D01*
X17697400Y-9573900D02*
X17697400Y-9653900D01*
X17657400Y-9613900D02*
X17737400Y-9613900D01*
X17697400Y-10335900D02*
X17697400Y-10415900D01*
X17657400Y-10375900D02*
X17737400Y-10375900D01*
X19263156Y-9515906D02*
X19263156Y-9445194D01*
X19192444Y-9445194D01*
X19192444Y-9515906D01*
X19263156Y-9515906D01*
X19263156Y-9769906D02*
X19263156Y-9699194D01*
X19192444Y-9699194D01*
X19192444Y-9769906D01*
X19263156Y-9769906D01*
X5890056Y-13021156D02*
X5890056Y-12950444D01*
X5819344Y-12950444D01*
X5819344Y-13021156D01*
X5890056Y-13021156D01*
X18774156Y-10277956D02*
X18774156Y-10207244D01*
X18703444Y-10207244D01*
X18703444Y-10277956D01*
X18774156Y-10277956D01*
X19028156Y-10277956D02*
X19028156Y-10207244D01*
X18957444Y-10207244D01*
X18957444Y-10277956D01*
X19028156Y-10277956D01*
X19282156Y-10277956D02*
X19282156Y-10207244D01*
X19211444Y-10207244D01*
X19211444Y-10277956D01*
X19282156Y-10277956D01*
X19263156Y-7198156D02*
X19263156Y-7127444D01*
X19192444Y-7127444D01*
X19192444Y-7198156D01*
X19263156Y-7198156D01*
X19263156Y-7452156D02*
X19263156Y-7381444D01*
X19192444Y-7381444D01*
X19192444Y-7452156D01*
X19263156Y-7452156D01*
X4112056Y-12875056D02*
X4112056Y-12804344D01*
X4041344Y-12804344D01*
X4041344Y-12875056D01*
X4112056Y-12875056D01*
X4112056Y-13129056D02*
X4112056Y-13058344D01*
X4041344Y-13058344D01*
X4041344Y-13129056D01*
X4112056Y-13129056D01*
X16138956Y-5115356D02*
X16138956Y-5044644D01*
X16068244Y-5044644D01*
X16068244Y-5115356D01*
X16138956Y-5115356D01*
X16392956Y-5115356D02*
X16392956Y-5044644D01*
X16322244Y-5044644D01*
X16322244Y-5115356D01*
X16392956Y-5115356D01*
X16646956Y-5115356D02*
X16646956Y-5044644D01*
X16576244Y-5044644D01*
X16576244Y-5115356D01*
X16646956Y-5115356D01*
X16900956Y-5115356D02*
X16900956Y-5044644D01*
X16830244Y-5044644D01*
X16830244Y-5115356D01*
X16900956Y-5115356D01*
X19269556Y-8080806D02*
X19269556Y-8010094D01*
X19198844Y-8010094D01*
X19198844Y-8080806D01*
X19269556Y-8080806D01*
X19269556Y-8334806D02*
X19269556Y-8264094D01*
X19198844Y-8264094D01*
X19198844Y-8334806D01*
X19269556Y-8334806D01*
X19269556Y-8588806D02*
X19269556Y-8518094D01*
X19198844Y-8518094D01*
X19198844Y-8588806D01*
X19269556Y-8588806D01*
D12*
X3941528Y-13752414D02*
X3941528Y-13452414D01*
X4012957Y-13452414D01*
X4055814Y-13466700D01*
X4084386Y-13495271D01*
X4098671Y-13523843D01*
X4112957Y-13580986D01*
X4112957Y-13623843D01*
X4098671Y-13680986D01*
X4084386Y-13709557D01*
X4055814Y-13738129D01*
X4012957Y-13752414D01*
X3941528Y-13752414D01*
X4241528Y-13752414D02*
X4241528Y-13552414D01*
X4241528Y-13609557D02*
X4255814Y-13580986D01*
X4270100Y-13566700D01*
X4298671Y-13552414D01*
X4327243Y-13552414D01*
X4427243Y-13752414D02*
X4427243Y-13552414D01*
X4427243Y-13452414D02*
X4412957Y-13466700D01*
X4427243Y-13480986D01*
X4441528Y-13466700D01*
X4427243Y-13452414D01*
X4427243Y-13480986D01*
X4612957Y-13752414D02*
X4584386Y-13738129D01*
X4570100Y-13709557D01*
X4570100Y-13452414D01*
X4770100Y-13752414D02*
X4741528Y-13738129D01*
X4727243Y-13709557D01*
X4727243Y-13452414D01*
X5112957Y-13752414D02*
X5112957Y-13452414D01*
X5212957Y-13666700D01*
X5312957Y-13452414D01*
X5312957Y-13752414D01*
X5584386Y-13752414D02*
X5584386Y-13595271D01*
X5570100Y-13566700D01*
X5541528Y-13552414D01*
X5484386Y-13552414D01*
X5455814Y-13566700D01*
X5584386Y-13738129D02*
X5555814Y-13752414D01*
X5484386Y-13752414D01*
X5455814Y-13738129D01*
X5441528Y-13709557D01*
X5441528Y-13680986D01*
X5455814Y-13652414D01*
X5484386Y-13638129D01*
X5555814Y-13638129D01*
X5584386Y-13623843D01*
X5727243Y-13552414D02*
X5727243Y-13852414D01*
X5727243Y-13566700D02*
X5755814Y-13552414D01*
X5812957Y-13552414D01*
X5841528Y-13566700D01*
X5855814Y-13580986D01*
X5870100Y-13609557D01*
X5870100Y-13695271D01*
X5855814Y-13723843D01*
X5841528Y-13738129D01*
X5812957Y-13752414D01*
X5755814Y-13752414D01*
X5727243Y-13738129D01*
X5998671Y-13723843D02*
X6012957Y-13738129D01*
X5998671Y-13752414D01*
X5984386Y-13738129D01*
X5998671Y-13723843D01*
X5998671Y-13752414D01*
X5998671Y-13566700D02*
X6012957Y-13580986D01*
X5998671Y-13595271D01*
X5984386Y-13580986D01*
X5998671Y-13566700D01*
X5998671Y-13595271D01*
X3615100Y-14226700D02*
X3655100Y-14266700D01*
X3655100Y-14226700D02*
X3615100Y-14266700D01*
X3998671Y-14082414D02*
X4027243Y-14082414D01*
X4055814Y-14096700D01*
X4070100Y-14110986D01*
X4084386Y-14139557D01*
X4098671Y-14196700D01*
X4098671Y-14268129D01*
X4084386Y-14325271D01*
X4070100Y-14353843D01*
X4055814Y-14368129D01*
X4027243Y-14382414D01*
X3998671Y-14382414D01*
X3970100Y-14368129D01*
X3955814Y-14353843D01*
X3941528Y-14325271D01*
X3927243Y-14268129D01*
X3927243Y-14196700D01*
X3941528Y-14139557D01*
X3955814Y-14110986D01*
X3970100Y-14096700D01*
X3998671Y-14082414D01*
X4227243Y-14353843D02*
X4241528Y-14368129D01*
X4227243Y-14382414D01*
X4212957Y-14368129D01*
X4227243Y-14353843D01*
X4227243Y-14382414D01*
X4498671Y-14182414D02*
X4498671Y-14382414D01*
X4427243Y-14068129D02*
X4355814Y-14282414D01*
X4541528Y-14282414D01*
X4712957Y-14082414D02*
X4741528Y-14082414D01*
X4770100Y-14096700D01*
X4784386Y-14110986D01*
X4798671Y-14139557D01*
X4812957Y-14196700D01*
X4812957Y-14268129D01*
X4798671Y-14325271D01*
X4784386Y-14353843D01*
X4770100Y-14368129D01*
X4741528Y-14382414D01*
X4712957Y-14382414D01*
X4684386Y-14368129D01*
X4670100Y-14353843D01*
X4655814Y-14325271D01*
X4641528Y-14268129D01*
X4641528Y-14196700D01*
X4655814Y-14139557D01*
X4670100Y-14110986D01*
X4684386Y-14096700D01*
X4712957Y-14082414D01*
X4941528Y-14382414D02*
X4941528Y-14182414D01*
X4941528Y-14210986D02*
X4955814Y-14196700D01*
X4984386Y-14182414D01*
X5027243Y-14182414D01*
X5055814Y-14196700D01*
X5070100Y-14225271D01*
X5070100Y-14382414D01*
X5070100Y-14225271D02*
X5084386Y-14196700D01*
X5112957Y-14182414D01*
X5155814Y-14182414D01*
X5184386Y-14196700D01*
X5198671Y-14225271D01*
X5198671Y-14382414D01*
X5341528Y-14382414D02*
X5341528Y-14182414D01*
X5341528Y-14210986D02*
X5355814Y-14196700D01*
X5384386Y-14182414D01*
X5427243Y-14182414D01*
X5455814Y-14196700D01*
X5470100Y-14225271D01*
X5470100Y-14382414D01*
X5470100Y-14225271D02*
X5484386Y-14196700D01*
X5512957Y-14182414D01*
X5555814Y-14182414D01*
X5584386Y-14196700D01*
X5598671Y-14225271D01*
X5598671Y-14382414D01*
X6184386Y-14068129D02*
X5927243Y-14453843D01*
X6570100Y-14082414D02*
X6598671Y-14082414D01*
X6627243Y-14096700D01*
X6641528Y-14110986D01*
X6655814Y-14139557D01*
X6670100Y-14196700D01*
X6670100Y-14268129D01*
X6655814Y-14325271D01*
X6641528Y-14353843D01*
X6627243Y-14368129D01*
X6598671Y-14382414D01*
X6570100Y-14382414D01*
X6541528Y-14368129D01*
X6527243Y-14353843D01*
X6512957Y-14325271D01*
X6498671Y-14268129D01*
X6498671Y-14196700D01*
X6512957Y-14139557D01*
X6527243Y-14110986D01*
X6541528Y-14096700D01*
X6570100Y-14082414D01*
X6798671Y-14353843D02*
X6812957Y-14368129D01*
X6798671Y-14382414D01*
X6784386Y-14368129D01*
X6798671Y-14353843D01*
X6798671Y-14382414D01*
X6998671Y-14082414D02*
X7027243Y-14082414D01*
X7055814Y-14096700D01*
X7070100Y-14110986D01*
X7084386Y-14139557D01*
X7098671Y-14196700D01*
X7098671Y-14268129D01*
X7084386Y-14325271D01*
X7070100Y-14353843D01*
X7055814Y-14368129D01*
X7027243Y-14382414D01*
X6998671Y-14382414D01*
X6970100Y-14368129D01*
X6955814Y-14353843D01*
X6941528Y-14325271D01*
X6927243Y-14268129D01*
X6927243Y-14196700D01*
X6941528Y-14139557D01*
X6955814Y-14110986D01*
X6970100Y-14096700D01*
X6998671Y-14082414D01*
X7384386Y-14382414D02*
X7212957Y-14382414D01*
X7298671Y-14382414D02*
X7298671Y-14082414D01*
X7270100Y-14125271D01*
X7241528Y-14153843D01*
X7212957Y-14168129D01*
X7641528Y-14082414D02*
X7584386Y-14082414D01*
X7555814Y-14096700D01*
X7541528Y-14110986D01*
X7512957Y-14153843D01*
X7498671Y-14210986D01*
X7498671Y-14325271D01*
X7512957Y-14353843D01*
X7527243Y-14368129D01*
X7555814Y-14382414D01*
X7612957Y-14382414D01*
X7641528Y-14368129D01*
X7655814Y-14353843D01*
X7670100Y-14325271D01*
X7670100Y-14253843D01*
X7655814Y-14225271D01*
X7641528Y-14210986D01*
X7612957Y-14196700D01*
X7555814Y-14196700D01*
X7527243Y-14210986D01*
X7512957Y-14225271D01*
X7498671Y-14253843D01*
X7784386Y-14082414D02*
X7784386Y-14139557D01*
X7898671Y-14082414D02*
X7898671Y-14139557D01*
X8341528Y-14496700D02*
X8327243Y-14482414D01*
X8298671Y-14439557D01*
X8284386Y-14410986D01*
X8270100Y-14368129D01*
X8255814Y-14296700D01*
X8255814Y-14239557D01*
X8270100Y-14168129D01*
X8284386Y-14125271D01*
X8298671Y-14096700D01*
X8327243Y-14053843D01*
X8341528Y-14039557D01*
X8427243Y-14082414D02*
X8627243Y-14082414D01*
X8498671Y-14382414D01*
X8712957Y-14082414D02*
X8912957Y-14082414D01*
X8784386Y-14382414D01*
X9255814Y-14382414D02*
X9255814Y-14082414D01*
X9384386Y-14382414D02*
X9384386Y-14225271D01*
X9370100Y-14196700D01*
X9341528Y-14182414D01*
X9298671Y-14182414D01*
X9270100Y-14196700D01*
X9255814Y-14210986D01*
X9570100Y-14382414D02*
X9541528Y-14368129D01*
X9527243Y-14353843D01*
X9512957Y-14325271D01*
X9512957Y-14239557D01*
X9527243Y-14210986D01*
X9541528Y-14196700D01*
X9570100Y-14182414D01*
X9612957Y-14182414D01*
X9641528Y-14196700D01*
X9655814Y-14210986D01*
X9670100Y-14239557D01*
X9670100Y-14325271D01*
X9655814Y-14353843D01*
X9641528Y-14368129D01*
X9612957Y-14382414D01*
X9570100Y-14382414D01*
X9841528Y-14382414D02*
X9812957Y-14368129D01*
X9798671Y-14339557D01*
X9798671Y-14082414D01*
X10070100Y-14368129D02*
X10041528Y-14382414D01*
X9984386Y-14382414D01*
X9955814Y-14368129D01*
X9941528Y-14339557D01*
X9941528Y-14225271D01*
X9955814Y-14196700D01*
X9984386Y-14182414D01*
X10041528Y-14182414D01*
X10070100Y-14196700D01*
X10084386Y-14225271D01*
X10084386Y-14253843D01*
X9941528Y-14282414D01*
X10198671Y-14368129D02*
X10227243Y-14382414D01*
X10284386Y-14382414D01*
X10312957Y-14368129D01*
X10327243Y-14339557D01*
X10327243Y-14325271D01*
X10312957Y-14296700D01*
X10284386Y-14282414D01*
X10241528Y-14282414D01*
X10212957Y-14268129D01*
X10198671Y-14239557D01*
X10198671Y-14225271D01*
X10212957Y-14196700D01*
X10241528Y-14182414D01*
X10284386Y-14182414D01*
X10312957Y-14196700D01*
X10427243Y-14496700D02*
X10441528Y-14482414D01*
X10470100Y-14439557D01*
X10484386Y-14410986D01*
X10498671Y-14368129D01*
X10512957Y-14296700D01*
X10512957Y-14239557D01*
X10498671Y-14168129D01*
X10484386Y-14125271D01*
X10470100Y-14096700D01*
X10441528Y-14053843D01*
X10427243Y-14039557D01*
X3655100Y-14642700D02*
G75*
G03*
X3655100Y-14642700I-35000J0D01*
G01*
X3998671Y-14478414D02*
X4027243Y-14478414D01*
X4055814Y-14492700D01*
X4070100Y-14506986D01*
X4084386Y-14535557D01*
X4098671Y-14592700D01*
X4098671Y-14664129D01*
X4084386Y-14721271D01*
X4070100Y-14749843D01*
X4055814Y-14764129D01*
X4027243Y-14778414D01*
X3998671Y-14778414D01*
X3970100Y-14764129D01*
X3955814Y-14749843D01*
X3941528Y-14721271D01*
X3927243Y-14664129D01*
X3927243Y-14592700D01*
X3941528Y-14535557D01*
X3955814Y-14506986D01*
X3970100Y-14492700D01*
X3998671Y-14478414D01*
X4227243Y-14749843D02*
X4241528Y-14764129D01*
X4227243Y-14778414D01*
X4212957Y-14764129D01*
X4227243Y-14749843D01*
X4227243Y-14778414D01*
X4341528Y-14478414D02*
X4541528Y-14478414D01*
X4412957Y-14778414D01*
X4712957Y-14478414D02*
X4741528Y-14478414D01*
X4770100Y-14492700D01*
X4784386Y-14506986D01*
X4798671Y-14535557D01*
X4812957Y-14592700D01*
X4812957Y-14664129D01*
X4798671Y-14721271D01*
X4784386Y-14749843D01*
X4770100Y-14764129D01*
X4741528Y-14778414D01*
X4712957Y-14778414D01*
X4684386Y-14764129D01*
X4670100Y-14749843D01*
X4655814Y-14721271D01*
X4641528Y-14664129D01*
X4641528Y-14592700D01*
X4655814Y-14535557D01*
X4670100Y-14506986D01*
X4684386Y-14492700D01*
X4712957Y-14478414D01*
X4941528Y-14778414D02*
X4941528Y-14578414D01*
X4941528Y-14606986D02*
X4955814Y-14592700D01*
X4984386Y-14578414D01*
X5027243Y-14578414D01*
X5055814Y-14592700D01*
X5070100Y-14621271D01*
X5070100Y-14778414D01*
X5070100Y-14621271D02*
X5084386Y-14592700D01*
X5112957Y-14578414D01*
X5155814Y-14578414D01*
X5184386Y-14592700D01*
X5198671Y-14621271D01*
X5198671Y-14778414D01*
X5341528Y-14778414D02*
X5341528Y-14578414D01*
X5341528Y-14606986D02*
X5355814Y-14592700D01*
X5384386Y-14578414D01*
X5427243Y-14578414D01*
X5455814Y-14592700D01*
X5470100Y-14621271D01*
X5470100Y-14778414D01*
X5470100Y-14621271D02*
X5484386Y-14592700D01*
X5512957Y-14578414D01*
X5555814Y-14578414D01*
X5584386Y-14592700D01*
X5598671Y-14621271D01*
X5598671Y-14778414D01*
X6184386Y-14464129D02*
X5927243Y-14849843D01*
X6570100Y-14478414D02*
X6598671Y-14478414D01*
X6627243Y-14492700D01*
X6641528Y-14506986D01*
X6655814Y-14535557D01*
X6670100Y-14592700D01*
X6670100Y-14664129D01*
X6655814Y-14721271D01*
X6641528Y-14749843D01*
X6627243Y-14764129D01*
X6598671Y-14778414D01*
X6570100Y-14778414D01*
X6541528Y-14764129D01*
X6527243Y-14749843D01*
X6512957Y-14721271D01*
X6498671Y-14664129D01*
X6498671Y-14592700D01*
X6512957Y-14535557D01*
X6527243Y-14506986D01*
X6541528Y-14492700D01*
X6570100Y-14478414D01*
X6798671Y-14749843D02*
X6812957Y-14764129D01*
X6798671Y-14778414D01*
X6784386Y-14764129D01*
X6798671Y-14749843D01*
X6798671Y-14778414D01*
X6998671Y-14478414D02*
X7027243Y-14478414D01*
X7055814Y-14492700D01*
X7070100Y-14506986D01*
X7084386Y-14535557D01*
X7098671Y-14592700D01*
X7098671Y-14664129D01*
X7084386Y-14721271D01*
X7070100Y-14749843D01*
X7055814Y-14764129D01*
X7027243Y-14778414D01*
X6998671Y-14778414D01*
X6970100Y-14764129D01*
X6955814Y-14749843D01*
X6941528Y-14721271D01*
X6927243Y-14664129D01*
X6927243Y-14592700D01*
X6941528Y-14535557D01*
X6955814Y-14506986D01*
X6970100Y-14492700D01*
X6998671Y-14478414D01*
X7212957Y-14506986D02*
X7227243Y-14492700D01*
X7255814Y-14478414D01*
X7327243Y-14478414D01*
X7355814Y-14492700D01*
X7370100Y-14506986D01*
X7384386Y-14535557D01*
X7384386Y-14564129D01*
X7370100Y-14606986D01*
X7198671Y-14778414D01*
X7384386Y-14778414D01*
X7555814Y-14606986D02*
X7527243Y-14592700D01*
X7512957Y-14578414D01*
X7498671Y-14549843D01*
X7498671Y-14535557D01*
X7512957Y-14506986D01*
X7527243Y-14492700D01*
X7555814Y-14478414D01*
X7612957Y-14478414D01*
X7641528Y-14492700D01*
X7655814Y-14506986D01*
X7670100Y-14535557D01*
X7670100Y-14549843D01*
X7655814Y-14578414D01*
X7641528Y-14592700D01*
X7612957Y-14606986D01*
X7555814Y-14606986D01*
X7527243Y-14621271D01*
X7512957Y-14635557D01*
X7498671Y-14664129D01*
X7498671Y-14721271D01*
X7512957Y-14749843D01*
X7527243Y-14764129D01*
X7555814Y-14778414D01*
X7612957Y-14778414D01*
X7641528Y-14764129D01*
X7655814Y-14749843D01*
X7670100Y-14721271D01*
X7670100Y-14664129D01*
X7655814Y-14635557D01*
X7641528Y-14621271D01*
X7612957Y-14606986D01*
X7784386Y-14478414D02*
X7784386Y-14535557D01*
X7898671Y-14478414D02*
X7898671Y-14535557D01*
X8341528Y-14892700D02*
X8327243Y-14878414D01*
X8298671Y-14835557D01*
X8284386Y-14806986D01*
X8270100Y-14764129D01*
X8255814Y-14692700D01*
X8255814Y-14635557D01*
X8270100Y-14564129D01*
X8284386Y-14521271D01*
X8298671Y-14492700D01*
X8327243Y-14449843D01*
X8341528Y-14435557D01*
X8612957Y-14778414D02*
X8441528Y-14778414D01*
X8527243Y-14778414D02*
X8527243Y-14478414D01*
X8498671Y-14521271D01*
X8470100Y-14549843D01*
X8441528Y-14564129D01*
X8798671Y-14478414D02*
X8827243Y-14478414D01*
X8855814Y-14492700D01*
X8870100Y-14506986D01*
X8884386Y-14535557D01*
X8898671Y-14592700D01*
X8898671Y-14664129D01*
X8884386Y-14721271D01*
X8870100Y-14749843D01*
X8855814Y-14764129D01*
X8827243Y-14778414D01*
X8798671Y-14778414D01*
X8770100Y-14764129D01*
X8755814Y-14749843D01*
X8741528Y-14721271D01*
X8727243Y-14664129D01*
X8727243Y-14592700D01*
X8741528Y-14535557D01*
X8755814Y-14506986D01*
X8770100Y-14492700D01*
X8798671Y-14478414D01*
X9255814Y-14778414D02*
X9255814Y-14478414D01*
X9384386Y-14778414D02*
X9384386Y-14621271D01*
X9370100Y-14592700D01*
X9341528Y-14578414D01*
X9298671Y-14578414D01*
X9270100Y-14592700D01*
X9255814Y-14606986D01*
X9570100Y-14778414D02*
X9541528Y-14764129D01*
X9527243Y-14749843D01*
X9512957Y-14721271D01*
X9512957Y-14635557D01*
X9527243Y-14606986D01*
X9541528Y-14592700D01*
X9570100Y-14578414D01*
X9612957Y-14578414D01*
X9641528Y-14592700D01*
X9655814Y-14606986D01*
X9670100Y-14635557D01*
X9670100Y-14721271D01*
X9655814Y-14749843D01*
X9641528Y-14764129D01*
X9612957Y-14778414D01*
X9570100Y-14778414D01*
X9841528Y-14778414D02*
X9812957Y-14764129D01*
X9798671Y-14735557D01*
X9798671Y-14478414D01*
X10070100Y-14764129D02*
X10041528Y-14778414D01*
X9984386Y-14778414D01*
X9955814Y-14764129D01*
X9941528Y-14735557D01*
X9941528Y-14621271D01*
X9955814Y-14592700D01*
X9984386Y-14578414D01*
X10041528Y-14578414D01*
X10070100Y-14592700D01*
X10084386Y-14621271D01*
X10084386Y-14649843D01*
X9941528Y-14678414D01*
X10198671Y-14764129D02*
X10227243Y-14778414D01*
X10284386Y-14778414D01*
X10312957Y-14764129D01*
X10327243Y-14735557D01*
X10327243Y-14721271D01*
X10312957Y-14692700D01*
X10284386Y-14678414D01*
X10241528Y-14678414D01*
X10212957Y-14664129D01*
X10198671Y-14635557D01*
X10198671Y-14621271D01*
X10212957Y-14592700D01*
X10241528Y-14578414D01*
X10284386Y-14578414D01*
X10312957Y-14592700D01*
X10427243Y-14892700D02*
X10441528Y-14878414D01*
X10470100Y-14835557D01*
X10484386Y-14806986D01*
X10498671Y-14764129D01*
X10512957Y-14692700D01*
X10512957Y-14635557D01*
X10498671Y-14564129D01*
X10484386Y-14521271D01*
X10470100Y-14492700D01*
X10441528Y-14449843D01*
X10427243Y-14435557D01*
X3615100Y-14998700D02*
X3615100Y-15078700D01*
X3575100Y-15038700D02*
X3655100Y-15038700D01*
X3998671Y-14874414D02*
X4027243Y-14874414D01*
X4055814Y-14888700D01*
X4070100Y-14902986D01*
X4084386Y-14931557D01*
X4098671Y-14988700D01*
X4098671Y-15060129D01*
X4084386Y-15117271D01*
X4070100Y-15145843D01*
X4055814Y-15160129D01*
X4027243Y-15174414D01*
X3998671Y-15174414D01*
X3970100Y-15160129D01*
X3955814Y-15145843D01*
X3941528Y-15117271D01*
X3927243Y-15060129D01*
X3927243Y-14988700D01*
X3941528Y-14931557D01*
X3955814Y-14902986D01*
X3970100Y-14888700D01*
X3998671Y-14874414D01*
X4227243Y-15145843D02*
X4241528Y-15160129D01*
X4227243Y-15174414D01*
X4212957Y-15160129D01*
X4227243Y-15145843D01*
X4227243Y-15174414D01*
X4412957Y-15002986D02*
X4384386Y-14988700D01*
X4370100Y-14974414D01*
X4355814Y-14945843D01*
X4355814Y-14931557D01*
X4370100Y-14902986D01*
X4384386Y-14888700D01*
X4412957Y-14874414D01*
X4470100Y-14874414D01*
X4498671Y-14888700D01*
X4512957Y-14902986D01*
X4527243Y-14931557D01*
X4527243Y-14945843D01*
X4512957Y-14974414D01*
X4498671Y-14988700D01*
X4470100Y-15002986D01*
X4412957Y-15002986D01*
X4384386Y-15017271D01*
X4370100Y-15031557D01*
X4355814Y-15060129D01*
X4355814Y-15117271D01*
X4370100Y-15145843D01*
X4384386Y-15160129D01*
X4412957Y-15174414D01*
X4470100Y-15174414D01*
X4498671Y-15160129D01*
X4512957Y-15145843D01*
X4527243Y-15117271D01*
X4527243Y-15060129D01*
X4512957Y-15031557D01*
X4498671Y-15017271D01*
X4470100Y-15002986D01*
X4712957Y-14874414D02*
X4741528Y-14874414D01*
X4770100Y-14888700D01*
X4784386Y-14902986D01*
X4798671Y-14931557D01*
X4812957Y-14988700D01*
X4812957Y-15060129D01*
X4798671Y-15117271D01*
X4784386Y-15145843D01*
X4770100Y-15160129D01*
X4741528Y-15174414D01*
X4712957Y-15174414D01*
X4684386Y-15160129D01*
X4670100Y-15145843D01*
X4655814Y-15117271D01*
X4641528Y-15060129D01*
X4641528Y-14988700D01*
X4655814Y-14931557D01*
X4670100Y-14902986D01*
X4684386Y-14888700D01*
X4712957Y-14874414D01*
X4941528Y-15174414D02*
X4941528Y-14974414D01*
X4941528Y-15002986D02*
X4955814Y-14988700D01*
X4984386Y-14974414D01*
X5027243Y-14974414D01*
X5055814Y-14988700D01*
X5070100Y-15017271D01*
X5070100Y-15174414D01*
X5070100Y-15017271D02*
X5084386Y-14988700D01*
X5112957Y-14974414D01*
X5155814Y-14974414D01*
X5184386Y-14988700D01*
X5198671Y-15017271D01*
X5198671Y-15174414D01*
X5341528Y-15174414D02*
X5341528Y-14974414D01*
X5341528Y-15002986D02*
X5355814Y-14988700D01*
X5384386Y-14974414D01*
X5427243Y-14974414D01*
X5455814Y-14988700D01*
X5470100Y-15017271D01*
X5470100Y-15174414D01*
X5470100Y-15017271D02*
X5484386Y-14988700D01*
X5512957Y-14974414D01*
X5555814Y-14974414D01*
X5584386Y-14988700D01*
X5598671Y-15017271D01*
X5598671Y-15174414D01*
X6184386Y-14860129D02*
X5927243Y-15245843D01*
X6570100Y-14874414D02*
X6598671Y-14874414D01*
X6627243Y-14888700D01*
X6641528Y-14902986D01*
X6655814Y-14931557D01*
X6670100Y-14988700D01*
X6670100Y-15060129D01*
X6655814Y-15117271D01*
X6641528Y-15145843D01*
X6627243Y-15160129D01*
X6598671Y-15174414D01*
X6570100Y-15174414D01*
X6541528Y-15160129D01*
X6527243Y-15145843D01*
X6512957Y-15117271D01*
X6498671Y-15060129D01*
X6498671Y-14988700D01*
X6512957Y-14931557D01*
X6527243Y-14902986D01*
X6541528Y-14888700D01*
X6570100Y-14874414D01*
X6798671Y-15145843D02*
X6812957Y-15160129D01*
X6798671Y-15174414D01*
X6784386Y-15160129D01*
X6798671Y-15145843D01*
X6798671Y-15174414D01*
X6998671Y-14874414D02*
X7027243Y-14874414D01*
X7055814Y-14888700D01*
X7070100Y-14902986D01*
X7084386Y-14931557D01*
X7098671Y-14988700D01*
X7098671Y-15060129D01*
X7084386Y-15117271D01*
X7070100Y-15145843D01*
X7055814Y-15160129D01*
X7027243Y-15174414D01*
X6998671Y-15174414D01*
X6970100Y-15160129D01*
X6955814Y-15145843D01*
X6941528Y-15117271D01*
X6927243Y-15060129D01*
X6927243Y-14988700D01*
X6941528Y-14931557D01*
X6955814Y-14902986D01*
X6970100Y-14888700D01*
X6998671Y-14874414D01*
X7198671Y-14874414D02*
X7384386Y-14874414D01*
X7284386Y-14988700D01*
X7327243Y-14988700D01*
X7355814Y-15002986D01*
X7370100Y-15017271D01*
X7384386Y-15045843D01*
X7384386Y-15117271D01*
X7370100Y-15145843D01*
X7355814Y-15160129D01*
X7327243Y-15174414D01*
X7241528Y-15174414D01*
X7212957Y-15160129D01*
X7198671Y-15145843D01*
X7670100Y-15174414D02*
X7498671Y-15174414D01*
X7584386Y-15174414D02*
X7584386Y-14874414D01*
X7555814Y-14917271D01*
X7527243Y-14945843D01*
X7498671Y-14960129D01*
X7784386Y-14874414D02*
X7784386Y-14931557D01*
X7898671Y-14874414D02*
X7898671Y-14931557D01*
X8341528Y-15288700D02*
X8327243Y-15274414D01*
X8298671Y-15231557D01*
X8284386Y-15202986D01*
X8270100Y-15160129D01*
X8255814Y-15088700D01*
X8255814Y-15031557D01*
X8270100Y-14960129D01*
X8284386Y-14917271D01*
X8298671Y-14888700D01*
X8327243Y-14845843D01*
X8341528Y-14831557D01*
X8441528Y-14902986D02*
X8455814Y-14888700D01*
X8484386Y-14874414D01*
X8555814Y-14874414D01*
X8584386Y-14888700D01*
X8598671Y-14902986D01*
X8612957Y-14931557D01*
X8612957Y-14960129D01*
X8598671Y-15002986D01*
X8427243Y-15174414D01*
X8612957Y-15174414D01*
X8755814Y-15174414D02*
X8812957Y-15174414D01*
X8841528Y-15160129D01*
X8855814Y-15145843D01*
X8884386Y-15102986D01*
X8898671Y-15045843D01*
X8898671Y-14931557D01*
X8884386Y-14902986D01*
X8870100Y-14888700D01*
X8841528Y-14874414D01*
X8784386Y-14874414D01*
X8755814Y-14888700D01*
X8741528Y-14902986D01*
X8727243Y-14931557D01*
X8727243Y-15002986D01*
X8741528Y-15031557D01*
X8755814Y-15045843D01*
X8784386Y-15060129D01*
X8841528Y-15060129D01*
X8870100Y-15045843D01*
X8884386Y-15031557D01*
X8898671Y-15002986D01*
X9155814Y-14874414D02*
X9098671Y-14874414D01*
X9070100Y-14888700D01*
X9055814Y-14902986D01*
X9027243Y-14945843D01*
X9012957Y-15002986D01*
X9012957Y-15117271D01*
X9027243Y-15145843D01*
X9041528Y-15160129D01*
X9070100Y-15174414D01*
X9127243Y-15174414D01*
X9155814Y-15160129D01*
X9170100Y-15145843D01*
X9184386Y-15117271D01*
X9184386Y-15045843D01*
X9170100Y-15017271D01*
X9155814Y-15002986D01*
X9127243Y-14988700D01*
X9070100Y-14988700D01*
X9041528Y-15002986D01*
X9027243Y-15017271D01*
X9012957Y-15045843D01*
X9541528Y-15174414D02*
X9541528Y-14874414D01*
X9670100Y-15174414D02*
X9670100Y-15017271D01*
X9655814Y-14988700D01*
X9627243Y-14974414D01*
X9584386Y-14974414D01*
X9555814Y-14988700D01*
X9541528Y-15002986D01*
X9855814Y-15174414D02*
X9827243Y-15160129D01*
X9812957Y-15145843D01*
X9798671Y-15117271D01*
X9798671Y-15031557D01*
X9812957Y-15002986D01*
X9827243Y-14988700D01*
X9855814Y-14974414D01*
X9898671Y-14974414D01*
X9927243Y-14988700D01*
X9941528Y-15002986D01*
X9955814Y-15031557D01*
X9955814Y-15117271D01*
X9941528Y-15145843D01*
X9927243Y-15160129D01*
X9898671Y-15174414D01*
X9855814Y-15174414D01*
X10127243Y-15174414D02*
X10098671Y-15160129D01*
X10084386Y-15131557D01*
X10084386Y-14874414D01*
X10355814Y-15160129D02*
X10327243Y-15174414D01*
X10270100Y-15174414D01*
X10241528Y-15160129D01*
X10227243Y-15131557D01*
X10227243Y-15017271D01*
X10241528Y-14988700D01*
X10270100Y-14974414D01*
X10327243Y-14974414D01*
X10355814Y-14988700D01*
X10370100Y-15017271D01*
X10370100Y-15045843D01*
X10227243Y-15074414D01*
X10484386Y-15160129D02*
X10512957Y-15174414D01*
X10570100Y-15174414D01*
X10598671Y-15160129D01*
X10612957Y-15131557D01*
X10612957Y-15117271D01*
X10598671Y-15088700D01*
X10570100Y-15074414D01*
X10527243Y-15074414D01*
X10498671Y-15060129D01*
X10484386Y-15031557D01*
X10484386Y-15017271D01*
X10498671Y-14988700D01*
X10527243Y-14974414D01*
X10570100Y-14974414D01*
X10598671Y-14988700D01*
X10712957Y-15288700D02*
X10727243Y-15274414D01*
X10755814Y-15231557D01*
X10770100Y-15202986D01*
X10784386Y-15160129D01*
X10798671Y-15088700D01*
X10798671Y-15031557D01*
X10784386Y-14960129D01*
X10770100Y-14917271D01*
X10755814Y-14888700D01*
X10727243Y-14845843D01*
X10712957Y-14831557D01*
X3640456Y-15470056D02*
X3640456Y-15399344D01*
X3569744Y-15399344D01*
X3569744Y-15470056D01*
X3640456Y-15470056D01*
X4098671Y-15570414D02*
X3927243Y-15570414D01*
X4012957Y-15570414D02*
X4012957Y-15270414D01*
X3984386Y-15313271D01*
X3955814Y-15341843D01*
X3927243Y-15356129D01*
X4227243Y-15541843D02*
X4241528Y-15556129D01*
X4227243Y-15570414D01*
X4212957Y-15556129D01*
X4227243Y-15541843D01*
X4227243Y-15570414D01*
X4427243Y-15270414D02*
X4455814Y-15270414D01*
X4484386Y-15284700D01*
X4498671Y-15298986D01*
X4512957Y-15327557D01*
X4527243Y-15384700D01*
X4527243Y-15456129D01*
X4512957Y-15513271D01*
X4498671Y-15541843D01*
X4484386Y-15556129D01*
X4455814Y-15570414D01*
X4427243Y-15570414D01*
X4398671Y-15556129D01*
X4384386Y-15541843D01*
X4370100Y-15513271D01*
X4355814Y-15456129D01*
X4355814Y-15384700D01*
X4370100Y-15327557D01*
X4384386Y-15298986D01*
X4398671Y-15284700D01*
X4427243Y-15270414D01*
X4712957Y-15270414D02*
X4741528Y-15270414D01*
X4770100Y-15284700D01*
X4784386Y-15298986D01*
X4798671Y-15327557D01*
X4812957Y-15384700D01*
X4812957Y-15456129D01*
X4798671Y-15513271D01*
X4784386Y-15541843D01*
X4770100Y-15556129D01*
X4741528Y-15570414D01*
X4712957Y-15570414D01*
X4684386Y-15556129D01*
X4670100Y-15541843D01*
X4655814Y-15513271D01*
X4641528Y-15456129D01*
X4641528Y-15384700D01*
X4655814Y-15327557D01*
X4670100Y-15298986D01*
X4684386Y-15284700D01*
X4712957Y-15270414D01*
X4941528Y-15570414D02*
X4941528Y-15370414D01*
X4941528Y-15398986D02*
X4955814Y-15384700D01*
X4984386Y-15370414D01*
X5027243Y-15370414D01*
X5055814Y-15384700D01*
X5070100Y-15413271D01*
X5070100Y-15570414D01*
X5070100Y-15413271D02*
X5084386Y-15384700D01*
X5112957Y-15370414D01*
X5155814Y-15370414D01*
X5184386Y-15384700D01*
X5198671Y-15413271D01*
X5198671Y-15570414D01*
X5341528Y-15570414D02*
X5341528Y-15370414D01*
X5341528Y-15398986D02*
X5355814Y-15384700D01*
X5384386Y-15370414D01*
X5427243Y-15370414D01*
X5455814Y-15384700D01*
X5470100Y-15413271D01*
X5470100Y-15570414D01*
X5470100Y-15413271D02*
X5484386Y-15384700D01*
X5512957Y-15370414D01*
X5555814Y-15370414D01*
X5584386Y-15384700D01*
X5598671Y-15413271D01*
X5598671Y-15570414D01*
X6184386Y-15256129D02*
X5927243Y-15641843D01*
X6570100Y-15270414D02*
X6598671Y-15270414D01*
X6627243Y-15284700D01*
X6641528Y-15298986D01*
X6655814Y-15327557D01*
X6670100Y-15384700D01*
X6670100Y-15456129D01*
X6655814Y-15513271D01*
X6641528Y-15541843D01*
X6627243Y-15556129D01*
X6598671Y-15570414D01*
X6570100Y-15570414D01*
X6541528Y-15556129D01*
X6527243Y-15541843D01*
X6512957Y-15513271D01*
X6498671Y-15456129D01*
X6498671Y-15384700D01*
X6512957Y-15327557D01*
X6527243Y-15298986D01*
X6541528Y-15284700D01*
X6570100Y-15270414D01*
X6798671Y-15541843D02*
X6812957Y-15556129D01*
X6798671Y-15570414D01*
X6784386Y-15556129D01*
X6798671Y-15541843D01*
X6798671Y-15570414D01*
X6998671Y-15270414D02*
X7027243Y-15270414D01*
X7055814Y-15284700D01*
X7070100Y-15298986D01*
X7084386Y-15327557D01*
X7098671Y-15384700D01*
X7098671Y-15456129D01*
X7084386Y-15513271D01*
X7070100Y-15541843D01*
X7055814Y-15556129D01*
X7027243Y-15570414D01*
X6998671Y-15570414D01*
X6970100Y-15556129D01*
X6955814Y-15541843D01*
X6941528Y-15513271D01*
X6927243Y-15456129D01*
X6927243Y-15384700D01*
X6941528Y-15327557D01*
X6955814Y-15298986D01*
X6970100Y-15284700D01*
X6998671Y-15270414D01*
X7198671Y-15270414D02*
X7384386Y-15270414D01*
X7284386Y-15384700D01*
X7327243Y-15384700D01*
X7355814Y-15398986D01*
X7370100Y-15413271D01*
X7384386Y-15441843D01*
X7384386Y-15513271D01*
X7370100Y-15541843D01*
X7355814Y-15556129D01*
X7327243Y-15570414D01*
X7241528Y-15570414D01*
X7212957Y-15556129D01*
X7198671Y-15541843D01*
X7527243Y-15570414D02*
X7584386Y-15570414D01*
X7612957Y-15556129D01*
X7627243Y-15541843D01*
X7655814Y-15498986D01*
X7670100Y-15441843D01*
X7670100Y-15327557D01*
X7655814Y-15298986D01*
X7641528Y-15284700D01*
X7612957Y-15270414D01*
X7555814Y-15270414D01*
X7527243Y-15284700D01*
X7512957Y-15298986D01*
X7498671Y-15327557D01*
X7498671Y-15398986D01*
X7512957Y-15427557D01*
X7527243Y-15441843D01*
X7555814Y-15456129D01*
X7612957Y-15456129D01*
X7641528Y-15441843D01*
X7655814Y-15427557D01*
X7670100Y-15398986D01*
X7784386Y-15270414D02*
X7784386Y-15327557D01*
X7898671Y-15270414D02*
X7898671Y-15327557D01*
X8341528Y-15684700D02*
X8327243Y-15670414D01*
X8298671Y-15627557D01*
X8284386Y-15598986D01*
X8270100Y-15556129D01*
X8255814Y-15484700D01*
X8255814Y-15427557D01*
X8270100Y-15356129D01*
X8284386Y-15313271D01*
X8298671Y-15284700D01*
X8327243Y-15241843D01*
X8341528Y-15227557D01*
X8612957Y-15570414D02*
X8441528Y-15570414D01*
X8527243Y-15570414D02*
X8527243Y-15270414D01*
X8498671Y-15313271D01*
X8470100Y-15341843D01*
X8441528Y-15356129D01*
X8712957Y-15270414D02*
X8912957Y-15270414D01*
X8784386Y-15570414D01*
X9255814Y-15570414D02*
X9255814Y-15270414D01*
X9384386Y-15570414D02*
X9384386Y-15413271D01*
X9370100Y-15384700D01*
X9341528Y-15370414D01*
X9298671Y-15370414D01*
X9270100Y-15384700D01*
X9255814Y-15398986D01*
X9570100Y-15570414D02*
X9541528Y-15556129D01*
X9527243Y-15541843D01*
X9512957Y-15513271D01*
X9512957Y-15427557D01*
X9527243Y-15398986D01*
X9541528Y-15384700D01*
X9570100Y-15370414D01*
X9612957Y-15370414D01*
X9641528Y-15384700D01*
X9655814Y-15398986D01*
X9670100Y-15427557D01*
X9670100Y-15513271D01*
X9655814Y-15541843D01*
X9641528Y-15556129D01*
X9612957Y-15570414D01*
X9570100Y-15570414D01*
X9841528Y-15570414D02*
X9812957Y-15556129D01*
X9798671Y-15527557D01*
X9798671Y-15270414D01*
X10070100Y-15556129D02*
X10041528Y-15570414D01*
X9984386Y-15570414D01*
X9955814Y-15556129D01*
X9941528Y-15527557D01*
X9941528Y-15413271D01*
X9955814Y-15384700D01*
X9984386Y-15370414D01*
X10041528Y-15370414D01*
X10070100Y-15384700D01*
X10084386Y-15413271D01*
X10084386Y-15441843D01*
X9941528Y-15470414D01*
X10198671Y-15556129D02*
X10227243Y-15570414D01*
X10284386Y-15570414D01*
X10312957Y-15556129D01*
X10327243Y-15527557D01*
X10327243Y-15513271D01*
X10312957Y-15484700D01*
X10284386Y-15470414D01*
X10241528Y-15470414D01*
X10212957Y-15456129D01*
X10198671Y-15427557D01*
X10198671Y-15413271D01*
X10212957Y-15384700D01*
X10241528Y-15370414D01*
X10284386Y-15370414D01*
X10312957Y-15384700D01*
X10427243Y-15684700D02*
X10441528Y-15670414D01*
X10470100Y-15627557D01*
X10484386Y-15598986D01*
X10498671Y-15556129D01*
X10512957Y-15484700D01*
X10512957Y-15427557D01*
X10498671Y-15356129D01*
X10484386Y-15313271D01*
X10470100Y-15284700D01*
X10441528Y-15241843D01*
X10427243Y-15227557D01*
M02*
