M48
METRIC,TZ
T1C0.400
T2C0.700
T3C0.800
T4C1.000
%
G90
G05
T1
X55570Y-131578
X58105Y-70231
X68762Y-123054
X69459Y-125496
X69846Y-127081
X69863Y-123342
X72029Y-120001
X72935Y-127103
X74014Y-127127
X74234Y-93023
X76987Y-119995
X77587Y-122496
X77625Y-112911
X78220Y-107721
X78782Y-109766
X79045Y-111217
X79327Y-125700
X79605Y-113826
X79691Y-112825
X79939Y-111825
X81016Y-118543
X81244Y-113132
X81778Y-116652
X82098Y-120001
X82121Y-104128
X82247Y-109425
X82646Y-117198
X82832Y-110254
X82995Y-127025
X83698Y-112077
X84148Y-109425
X84500Y-113816
X84958Y-120800
X85489Y-113060
X86769Y-63178
X87410Y-88648
X87529Y-61392
X87836Y-93940
X87877Y-104665
X88116Y-87112
X90987Y-123656
X94985Y-112146
X95493Y-111240
X96305Y-96201
X96494Y-111240
X98576Y-102801
X100426Y-102424
X105159Y-104318
X110083Y-124093
X111827Y-125505
X112153Y-128101
X112578Y-104438
X112640Y-126925
X113283Y-90313
X122013Y-118244
X131166Y-118280
X132322Y-120724
X133093Y-112728
X133325Y-99643
X133975Y-117343
X137686Y-116443
X140021Y-115213
X141460Y-115955
X142185Y-117766
X143165Y-116896
X149204Y-105253
X149860Y-119420
X160911Y-105663
X166415Y-125505
X169373Y-94636
X175667Y-97701
X176084Y-69276
X178209Y-98151
X179218Y-98612
X180344Y-98720
X183021Y-104443
X187584Y-109704
T2
X38798Y-123063
X46418Y-123063
X48895Y-123063
X56515Y-123063
X184594Y-90424
X192214Y-90424
X169990Y-81280
X177610Y-81280
X46355Y-125603
X53975Y-125603
T3
X67247Y-32258
X67247Y-34798
X67247Y-37338
X67247Y-39878
X67247Y-42418
X67247Y-44958
X67247Y-47498
X67247Y-50038
X67247Y-52578
X67247Y-55118
X67247Y-57658
X67247Y-60198
X67247Y-62738
X67247Y-65278
X67247Y-67818
X67247Y-70358
X67247Y-72898
X67247Y-75438
X67247Y-77978
X67247Y-80518
X67247Y-83058
X67247Y-85598
X67247Y-88138
X67247Y-90678
X67247Y-93218
X67247Y-95758
X67247Y-98298
X67247Y-100838
X67247Y-103378
X67247Y-105918
X67247Y-108458
X67247Y-110998
X90107Y-32258
X90107Y-34798
X90107Y-37338
X90107Y-39878
X90107Y-42418
X90107Y-44958
X90107Y-47498
X90107Y-50038
X90107Y-52578
X90107Y-55118
X90107Y-57658
X90107Y-60198
X90107Y-62738
X90107Y-65278
X90107Y-67818
X90107Y-70358
X90107Y-72898
X90107Y-75438
X90107Y-77978
X90107Y-80518
X90107Y-83058
X90107Y-85598
X90107Y-88138
X90107Y-90678
X90107Y-93218
X90107Y-95758
X90107Y-98298
X90107Y-100838
X90107Y-103378
X90107Y-105918
X90107Y-108458
X90107Y-110998
X156654Y-61405
X156654Y-63944
X156654Y-66485
X156654Y-69025
X156654Y-71565
X156654Y-74105
X159194Y-58865
X159194Y-61405
X159194Y-63944
X159194Y-66485
X159194Y-69025
X159194Y-71565
X159194Y-74105
X159194Y-76644
X161734Y-58865
X161734Y-61405
X161734Y-74105
X161734Y-76644
X164274Y-58865
X164274Y-61405
X164274Y-74105
X164274Y-76644
X166814Y-58865
X166814Y-61405
X166814Y-74105
X166814Y-76644
X169354Y-58865
X169354Y-61405
X169354Y-74105
X169354Y-76644
X171894Y-58865
X171894Y-61405
X171894Y-63944
X171894Y-66485
X171894Y-69025
X171894Y-71565
X171894Y-74105
X171894Y-76644
X174434Y-61405
X174434Y-63944
X174434Y-66485
X174434Y-69025
X174434Y-71565
X174434Y-74105
X154178Y-83693
X154178Y-91313
X156718Y-83693
X156718Y-91313
X159258Y-83693
X159258Y-91313
X161798Y-83693
X161798Y-91313
X164338Y-83693
X164338Y-91313
X166878Y-83693
X166878Y-91313
X169418Y-83693
X169418Y-91313
X171958Y-83693
X171958Y-91313
X174498Y-83693
X174498Y-91313
X177038Y-83693
X177038Y-91313
X114300Y-107188
X114300Y-130048
X116840Y-107188
X116840Y-130048
X119380Y-107188
X119380Y-130048
X121920Y-107188
X121920Y-130048
X124460Y-107188
X124460Y-130048
X127000Y-107188
X127000Y-130048
X129540Y-107188
X129540Y-130048
X132080Y-107188
X132080Y-130048
X134620Y-107188
X134620Y-130048
X137160Y-107188
X137160Y-130048
X139700Y-107188
X139700Y-130048
X142240Y-107188
X142240Y-130048
X144780Y-107188
X144780Y-130048
X147320Y-107188
X147320Y-130048
X149860Y-107188
X149860Y-130048
X152400Y-107188
X152400Y-130048
X154940Y-107188
X154940Y-130048
X157480Y-107188
X157480Y-130048
X160020Y-107188
X160020Y-130048
X162560Y-107188
X162560Y-130048
X165100Y-107188
X165100Y-130048
X167640Y-107188
X167640Y-130048
X170180Y-107188
X170180Y-130048
X172720Y-107188
X172720Y-130048
X175260Y-107188
X175260Y-130048
X177800Y-107188
X177800Y-130048
X180340Y-107188
X180340Y-130048
X182880Y-107188
X182880Y-130048
X185420Y-107188
X185420Y-130048
X187960Y-107188
X187960Y-130048
X190500Y-107188
X190500Y-130048
X193040Y-107188
X193040Y-130048
X38735Y-30861
X38735Y-33401
X38735Y-35941
X38735Y-38481
X38735Y-41021
X38735Y-43561
X38735Y-46101
X38735Y-48641
X38735Y-51181
X38735Y-53721
X38735Y-56261
X38735Y-58801
X38735Y-61341
X38735Y-63881
X38735Y-66421
X38735Y-68961
X38735Y-71501
X38735Y-74041
X38735Y-76581
X38735Y-79121
X38735Y-81661
X38735Y-84201
X38735Y-86741
X38735Y-89281
X38735Y-91821
X38735Y-94361
X38735Y-96901
X38735Y-99441
X38735Y-101981
X38735Y-104521
X38735Y-107061
X38735Y-109601
X61595Y-30861
X61595Y-33401
X61595Y-35941
X61595Y-38481
X61595Y-41021
X61595Y-43561
X61595Y-46101
X61595Y-48641
X61595Y-51181
X61595Y-53721
X61595Y-56261
X61595Y-58801
X61595Y-61341
X61595Y-63881
X61595Y-66421
X61595Y-68961
X61595Y-71501
X61595Y-74041
X61595Y-76581
X61595Y-79121
X61595Y-81661
X61595Y-84201
X61595Y-86741
X61595Y-89281
X61595Y-91821
X61595Y-94361
X61595Y-96901
X61595Y-99441
X61595Y-101981
X61595Y-104521
X61595Y-107061
X61595Y-109601
X38798Y-112903
X38798Y-120523
X41339Y-112903
X41339Y-120523
X43878Y-112903
X43878Y-120523
X46418Y-112903
X46418Y-120523
X48959Y-112903
X48959Y-120523
X51499Y-112903
X51499Y-120523
X54039Y-112903
X54039Y-120523
X56578Y-112903
X56578Y-120523
X59118Y-112903
X59118Y-120523
X61658Y-112903
X61658Y-120523
X154114Y-96139
X154114Y-103759
X156654Y-96139
X156654Y-103759
X159194Y-96139
X159194Y-103759
X161734Y-96139
X161734Y-103759
X164274Y-96139
X164274Y-103759
X166814Y-96139
X166814Y-103759
X169354Y-96139
X169354Y-103759
X171894Y-96139
X171894Y-103759
X174434Y-96139
X174434Y-103759
X176974Y-96139
X176974Y-103759
T4
X192278Y-94806
X192278Y-97346
X58547Y-129858
X187388Y-102426
X189928Y-102426
X192468Y-102426
X192278Y-71628
X192278Y-74168
X40767Y-128397
X40767Y-130937
X161036Y-50800
X163576Y-50800
X166116Y-50800
X168656Y-50800
X192342Y-80455
X192342Y-82995
X192342Y-85534
T0
M30
