%TF.GenerationSoftware,KiCad,Pcbnew,(5.1.7)-1*%
%TF.CreationDate,2020-11-02T22:58:22+00:00*%
%TF.ProjectId,STFM-TF536-Relocator+ROM-MkII,5354464d-2d54-4463-9533-362d52656c6f,rev?*%
%TF.SameCoordinates,Original*%
%TF.FileFunction,Paste,Top*%
%TF.FilePolarity,Positive*%
%FSLAX46Y46*%
G04 Gerber Fmt 4.6, Leading zero omitted, Abs format (unit mm)*
G04 Created by KiCad (PCBNEW (5.1.7)-1) date 2020-11-02 22:58:22*
%MOMM*%
%LPD*%
G01*
G04 APERTURE LIST*
G04 APERTURE END LIST*
%TO.C,C10*%
G36*
G01*
X83154500Y-121735000D02*
X84104500Y-121735000D01*
G75*
G02*
X84354500Y-121985000I0J-250000D01*
G01*
X84354500Y-122485000D01*
G75*
G02*
X84104500Y-122735000I-250000J0D01*
G01*
X83154500Y-122735000D01*
G75*
G02*
X82904500Y-122485000I0J250000D01*
G01*
X82904500Y-121985000D01*
G75*
G02*
X83154500Y-121735000I250000J0D01*
G01*
G37*
G36*
G01*
X83154500Y-119835000D02*
X84104500Y-119835000D01*
G75*
G02*
X84354500Y-120085000I0J-250000D01*
G01*
X84354500Y-120585000D01*
G75*
G02*
X84104500Y-120835000I-250000J0D01*
G01*
X83154500Y-120835000D01*
G75*
G02*
X82904500Y-120585000I0J250000D01*
G01*
X82904500Y-120085000D01*
G75*
G02*
X83154500Y-119835000I250000J0D01*
G01*
G37*
%TD*%
%TO.C,C8*%
G36*
G01*
X60319500Y-122334000D02*
X60319500Y-123284000D01*
G75*
G02*
X60069500Y-123534000I-250000J0D01*
G01*
X59569500Y-123534000D01*
G75*
G02*
X59319500Y-123284000I0J250000D01*
G01*
X59319500Y-122334000D01*
G75*
G02*
X59569500Y-122084000I250000J0D01*
G01*
X60069500Y-122084000D01*
G75*
G02*
X60319500Y-122334000I0J-250000D01*
G01*
G37*
G36*
G01*
X62219500Y-122334000D02*
X62219500Y-123284000D01*
G75*
G02*
X61969500Y-123534000I-250000J0D01*
G01*
X61469500Y-123534000D01*
G75*
G02*
X61219500Y-123284000I0J250000D01*
G01*
X61219500Y-122334000D01*
G75*
G02*
X61469500Y-122084000I250000J0D01*
G01*
X61969500Y-122084000D01*
G75*
G02*
X62219500Y-122334000I0J-250000D01*
G01*
G37*
%TD*%
%TO.C,C6*%
G36*
G01*
X73185000Y-121672000D02*
X74135000Y-121672000D01*
G75*
G02*
X74385000Y-121922000I0J-250000D01*
G01*
X74385000Y-122422000D01*
G75*
G02*
X74135000Y-122672000I-250000J0D01*
G01*
X73185000Y-122672000D01*
G75*
G02*
X72935000Y-122422000I0J250000D01*
G01*
X72935000Y-121922000D01*
G75*
G02*
X73185000Y-121672000I250000J0D01*
G01*
G37*
G36*
G01*
X73185000Y-119772000D02*
X74135000Y-119772000D01*
G75*
G02*
X74385000Y-120022000I0J-250000D01*
G01*
X74385000Y-120522000D01*
G75*
G02*
X74135000Y-120772000I-250000J0D01*
G01*
X73185000Y-120772000D01*
G75*
G02*
X72935000Y-120522000I0J250000D01*
G01*
X72935000Y-120022000D01*
G75*
G02*
X73185000Y-119772000I250000J0D01*
G01*
G37*
%TD*%
%TO.C,U7*%
G36*
G01*
X70470500Y-121054000D02*
X70470500Y-120754000D01*
G75*
G02*
X70620500Y-120604000I150000J0D01*
G01*
X72070500Y-120604000D01*
G75*
G02*
X72220500Y-120754000I0J-150000D01*
G01*
X72220500Y-121054000D01*
G75*
G02*
X72070500Y-121204000I-150000J0D01*
G01*
X70620500Y-121204000D01*
G75*
G02*
X70470500Y-121054000I0J150000D01*
G01*
G37*
G36*
G01*
X70470500Y-122324000D02*
X70470500Y-122024000D01*
G75*
G02*
X70620500Y-121874000I150000J0D01*
G01*
X72070500Y-121874000D01*
G75*
G02*
X72220500Y-122024000I0J-150000D01*
G01*
X72220500Y-122324000D01*
G75*
G02*
X72070500Y-122474000I-150000J0D01*
G01*
X70620500Y-122474000D01*
G75*
G02*
X70470500Y-122324000I0J150000D01*
G01*
G37*
G36*
G01*
X70470500Y-123594000D02*
X70470500Y-123294000D01*
G75*
G02*
X70620500Y-123144000I150000J0D01*
G01*
X72070500Y-123144000D01*
G75*
G02*
X72220500Y-123294000I0J-150000D01*
G01*
X72220500Y-123594000D01*
G75*
G02*
X72070500Y-123744000I-150000J0D01*
G01*
X70620500Y-123744000D01*
G75*
G02*
X70470500Y-123594000I0J150000D01*
G01*
G37*
G36*
G01*
X70470500Y-124864000D02*
X70470500Y-124564000D01*
G75*
G02*
X70620500Y-124414000I150000J0D01*
G01*
X72070500Y-124414000D01*
G75*
G02*
X72220500Y-124564000I0J-150000D01*
G01*
X72220500Y-124864000D01*
G75*
G02*
X72070500Y-125014000I-150000J0D01*
G01*
X70620500Y-125014000D01*
G75*
G02*
X70470500Y-124864000I0J150000D01*
G01*
G37*
G36*
G01*
X70470500Y-126134000D02*
X70470500Y-125834000D01*
G75*
G02*
X70620500Y-125684000I150000J0D01*
G01*
X72070500Y-125684000D01*
G75*
G02*
X72220500Y-125834000I0J-150000D01*
G01*
X72220500Y-126134000D01*
G75*
G02*
X72070500Y-126284000I-150000J0D01*
G01*
X70620500Y-126284000D01*
G75*
G02*
X70470500Y-126134000I0J150000D01*
G01*
G37*
G36*
G01*
X70470500Y-127404000D02*
X70470500Y-127104000D01*
G75*
G02*
X70620500Y-126954000I150000J0D01*
G01*
X72070500Y-126954000D01*
G75*
G02*
X72220500Y-127104000I0J-150000D01*
G01*
X72220500Y-127404000D01*
G75*
G02*
X72070500Y-127554000I-150000J0D01*
G01*
X70620500Y-127554000D01*
G75*
G02*
X70470500Y-127404000I0J150000D01*
G01*
G37*
G36*
G01*
X70470500Y-128674000D02*
X70470500Y-128374000D01*
G75*
G02*
X70620500Y-128224000I150000J0D01*
G01*
X72070500Y-128224000D01*
G75*
G02*
X72220500Y-128374000I0J-150000D01*
G01*
X72220500Y-128674000D01*
G75*
G02*
X72070500Y-128824000I-150000J0D01*
G01*
X70620500Y-128824000D01*
G75*
G02*
X70470500Y-128674000I0J150000D01*
G01*
G37*
G36*
G01*
X70470500Y-129944000D02*
X70470500Y-129644000D01*
G75*
G02*
X70620500Y-129494000I150000J0D01*
G01*
X72070500Y-129494000D01*
G75*
G02*
X72220500Y-129644000I0J-150000D01*
G01*
X72220500Y-129944000D01*
G75*
G02*
X72070500Y-130094000I-150000J0D01*
G01*
X70620500Y-130094000D01*
G75*
G02*
X70470500Y-129944000I0J150000D01*
G01*
G37*
G36*
G01*
X65320500Y-129944000D02*
X65320500Y-129644000D01*
G75*
G02*
X65470500Y-129494000I150000J0D01*
G01*
X66920500Y-129494000D01*
G75*
G02*
X67070500Y-129644000I0J-150000D01*
G01*
X67070500Y-129944000D01*
G75*
G02*
X66920500Y-130094000I-150000J0D01*
G01*
X65470500Y-130094000D01*
G75*
G02*
X65320500Y-129944000I0J150000D01*
G01*
G37*
G36*
G01*
X65320500Y-128674000D02*
X65320500Y-128374000D01*
G75*
G02*
X65470500Y-128224000I150000J0D01*
G01*
X66920500Y-128224000D01*
G75*
G02*
X67070500Y-128374000I0J-150000D01*
G01*
X67070500Y-128674000D01*
G75*
G02*
X66920500Y-128824000I-150000J0D01*
G01*
X65470500Y-128824000D01*
G75*
G02*
X65320500Y-128674000I0J150000D01*
G01*
G37*
G36*
G01*
X65320500Y-127404000D02*
X65320500Y-127104000D01*
G75*
G02*
X65470500Y-126954000I150000J0D01*
G01*
X66920500Y-126954000D01*
G75*
G02*
X67070500Y-127104000I0J-150000D01*
G01*
X67070500Y-127404000D01*
G75*
G02*
X66920500Y-127554000I-150000J0D01*
G01*
X65470500Y-127554000D01*
G75*
G02*
X65320500Y-127404000I0J150000D01*
G01*
G37*
G36*
G01*
X65320500Y-126134000D02*
X65320500Y-125834000D01*
G75*
G02*
X65470500Y-125684000I150000J0D01*
G01*
X66920500Y-125684000D01*
G75*
G02*
X67070500Y-125834000I0J-150000D01*
G01*
X67070500Y-126134000D01*
G75*
G02*
X66920500Y-126284000I-150000J0D01*
G01*
X65470500Y-126284000D01*
G75*
G02*
X65320500Y-126134000I0J150000D01*
G01*
G37*
G36*
G01*
X65320500Y-124864000D02*
X65320500Y-124564000D01*
G75*
G02*
X65470500Y-124414000I150000J0D01*
G01*
X66920500Y-124414000D01*
G75*
G02*
X67070500Y-124564000I0J-150000D01*
G01*
X67070500Y-124864000D01*
G75*
G02*
X66920500Y-125014000I-150000J0D01*
G01*
X65470500Y-125014000D01*
G75*
G02*
X65320500Y-124864000I0J150000D01*
G01*
G37*
G36*
G01*
X65320500Y-123594000D02*
X65320500Y-123294000D01*
G75*
G02*
X65470500Y-123144000I150000J0D01*
G01*
X66920500Y-123144000D01*
G75*
G02*
X67070500Y-123294000I0J-150000D01*
G01*
X67070500Y-123594000D01*
G75*
G02*
X66920500Y-123744000I-150000J0D01*
G01*
X65470500Y-123744000D01*
G75*
G02*
X65320500Y-123594000I0J150000D01*
G01*
G37*
G36*
G01*
X65320500Y-122324000D02*
X65320500Y-122024000D01*
G75*
G02*
X65470500Y-121874000I150000J0D01*
G01*
X66920500Y-121874000D01*
G75*
G02*
X67070500Y-122024000I0J-150000D01*
G01*
X67070500Y-122324000D01*
G75*
G02*
X66920500Y-122474000I-150000J0D01*
G01*
X65470500Y-122474000D01*
G75*
G02*
X65320500Y-122324000I0J150000D01*
G01*
G37*
G36*
G01*
X65320500Y-121054000D02*
X65320500Y-120754000D01*
G75*
G02*
X65470500Y-120604000I150000J0D01*
G01*
X66920500Y-120604000D01*
G75*
G02*
X67070500Y-120754000I0J-150000D01*
G01*
X67070500Y-121054000D01*
G75*
G02*
X66920500Y-121204000I-150000J0D01*
G01*
X65470500Y-121204000D01*
G75*
G02*
X65320500Y-121054000I0J150000D01*
G01*
G37*
%TD*%
%TO.C,U6*%
G36*
G01*
X80376500Y-121054000D02*
X80376500Y-120754000D01*
G75*
G02*
X80526500Y-120604000I150000J0D01*
G01*
X81976500Y-120604000D01*
G75*
G02*
X82126500Y-120754000I0J-150000D01*
G01*
X82126500Y-121054000D01*
G75*
G02*
X81976500Y-121204000I-150000J0D01*
G01*
X80526500Y-121204000D01*
G75*
G02*
X80376500Y-121054000I0J150000D01*
G01*
G37*
G36*
G01*
X80376500Y-122324000D02*
X80376500Y-122024000D01*
G75*
G02*
X80526500Y-121874000I150000J0D01*
G01*
X81976500Y-121874000D01*
G75*
G02*
X82126500Y-122024000I0J-150000D01*
G01*
X82126500Y-122324000D01*
G75*
G02*
X81976500Y-122474000I-150000J0D01*
G01*
X80526500Y-122474000D01*
G75*
G02*
X80376500Y-122324000I0J150000D01*
G01*
G37*
G36*
G01*
X80376500Y-123594000D02*
X80376500Y-123294000D01*
G75*
G02*
X80526500Y-123144000I150000J0D01*
G01*
X81976500Y-123144000D01*
G75*
G02*
X82126500Y-123294000I0J-150000D01*
G01*
X82126500Y-123594000D01*
G75*
G02*
X81976500Y-123744000I-150000J0D01*
G01*
X80526500Y-123744000D01*
G75*
G02*
X80376500Y-123594000I0J150000D01*
G01*
G37*
G36*
G01*
X80376500Y-124864000D02*
X80376500Y-124564000D01*
G75*
G02*
X80526500Y-124414000I150000J0D01*
G01*
X81976500Y-124414000D01*
G75*
G02*
X82126500Y-124564000I0J-150000D01*
G01*
X82126500Y-124864000D01*
G75*
G02*
X81976500Y-125014000I-150000J0D01*
G01*
X80526500Y-125014000D01*
G75*
G02*
X80376500Y-124864000I0J150000D01*
G01*
G37*
G36*
G01*
X80376500Y-126134000D02*
X80376500Y-125834000D01*
G75*
G02*
X80526500Y-125684000I150000J0D01*
G01*
X81976500Y-125684000D01*
G75*
G02*
X82126500Y-125834000I0J-150000D01*
G01*
X82126500Y-126134000D01*
G75*
G02*
X81976500Y-126284000I-150000J0D01*
G01*
X80526500Y-126284000D01*
G75*
G02*
X80376500Y-126134000I0J150000D01*
G01*
G37*
G36*
G01*
X80376500Y-127404000D02*
X80376500Y-127104000D01*
G75*
G02*
X80526500Y-126954000I150000J0D01*
G01*
X81976500Y-126954000D01*
G75*
G02*
X82126500Y-127104000I0J-150000D01*
G01*
X82126500Y-127404000D01*
G75*
G02*
X81976500Y-127554000I-150000J0D01*
G01*
X80526500Y-127554000D01*
G75*
G02*
X80376500Y-127404000I0J150000D01*
G01*
G37*
G36*
G01*
X80376500Y-128674000D02*
X80376500Y-128374000D01*
G75*
G02*
X80526500Y-128224000I150000J0D01*
G01*
X81976500Y-128224000D01*
G75*
G02*
X82126500Y-128374000I0J-150000D01*
G01*
X82126500Y-128674000D01*
G75*
G02*
X81976500Y-128824000I-150000J0D01*
G01*
X80526500Y-128824000D01*
G75*
G02*
X80376500Y-128674000I0J150000D01*
G01*
G37*
G36*
G01*
X80376500Y-129944000D02*
X80376500Y-129644000D01*
G75*
G02*
X80526500Y-129494000I150000J0D01*
G01*
X81976500Y-129494000D01*
G75*
G02*
X82126500Y-129644000I0J-150000D01*
G01*
X82126500Y-129944000D01*
G75*
G02*
X81976500Y-130094000I-150000J0D01*
G01*
X80526500Y-130094000D01*
G75*
G02*
X80376500Y-129944000I0J150000D01*
G01*
G37*
G36*
G01*
X75226500Y-129944000D02*
X75226500Y-129644000D01*
G75*
G02*
X75376500Y-129494000I150000J0D01*
G01*
X76826500Y-129494000D01*
G75*
G02*
X76976500Y-129644000I0J-150000D01*
G01*
X76976500Y-129944000D01*
G75*
G02*
X76826500Y-130094000I-150000J0D01*
G01*
X75376500Y-130094000D01*
G75*
G02*
X75226500Y-129944000I0J150000D01*
G01*
G37*
G36*
G01*
X75226500Y-128674000D02*
X75226500Y-128374000D01*
G75*
G02*
X75376500Y-128224000I150000J0D01*
G01*
X76826500Y-128224000D01*
G75*
G02*
X76976500Y-128374000I0J-150000D01*
G01*
X76976500Y-128674000D01*
G75*
G02*
X76826500Y-128824000I-150000J0D01*
G01*
X75376500Y-128824000D01*
G75*
G02*
X75226500Y-128674000I0J150000D01*
G01*
G37*
G36*
G01*
X75226500Y-127404000D02*
X75226500Y-127104000D01*
G75*
G02*
X75376500Y-126954000I150000J0D01*
G01*
X76826500Y-126954000D01*
G75*
G02*
X76976500Y-127104000I0J-150000D01*
G01*
X76976500Y-127404000D01*
G75*
G02*
X76826500Y-127554000I-150000J0D01*
G01*
X75376500Y-127554000D01*
G75*
G02*
X75226500Y-127404000I0J150000D01*
G01*
G37*
G36*
G01*
X75226500Y-126134000D02*
X75226500Y-125834000D01*
G75*
G02*
X75376500Y-125684000I150000J0D01*
G01*
X76826500Y-125684000D01*
G75*
G02*
X76976500Y-125834000I0J-150000D01*
G01*
X76976500Y-126134000D01*
G75*
G02*
X76826500Y-126284000I-150000J0D01*
G01*
X75376500Y-126284000D01*
G75*
G02*
X75226500Y-126134000I0J150000D01*
G01*
G37*
G36*
G01*
X75226500Y-124864000D02*
X75226500Y-124564000D01*
G75*
G02*
X75376500Y-124414000I150000J0D01*
G01*
X76826500Y-124414000D01*
G75*
G02*
X76976500Y-124564000I0J-150000D01*
G01*
X76976500Y-124864000D01*
G75*
G02*
X76826500Y-125014000I-150000J0D01*
G01*
X75376500Y-125014000D01*
G75*
G02*
X75226500Y-124864000I0J150000D01*
G01*
G37*
G36*
G01*
X75226500Y-123594000D02*
X75226500Y-123294000D01*
G75*
G02*
X75376500Y-123144000I150000J0D01*
G01*
X76826500Y-123144000D01*
G75*
G02*
X76976500Y-123294000I0J-150000D01*
G01*
X76976500Y-123594000D01*
G75*
G02*
X76826500Y-123744000I-150000J0D01*
G01*
X75376500Y-123744000D01*
G75*
G02*
X75226500Y-123594000I0J150000D01*
G01*
G37*
G36*
G01*
X75226500Y-122324000D02*
X75226500Y-122024000D01*
G75*
G02*
X75376500Y-121874000I150000J0D01*
G01*
X76826500Y-121874000D01*
G75*
G02*
X76976500Y-122024000I0J-150000D01*
G01*
X76976500Y-122324000D01*
G75*
G02*
X76826500Y-122474000I-150000J0D01*
G01*
X75376500Y-122474000D01*
G75*
G02*
X75226500Y-122324000I0J150000D01*
G01*
G37*
G36*
G01*
X75226500Y-121054000D02*
X75226500Y-120754000D01*
G75*
G02*
X75376500Y-120604000I150000J0D01*
G01*
X76826500Y-120604000D01*
G75*
G02*
X76976500Y-120754000I0J-150000D01*
G01*
X76976500Y-121054000D01*
G75*
G02*
X76826500Y-121204000I-150000J0D01*
G01*
X75376500Y-121204000D01*
G75*
G02*
X75226500Y-121054000I0J150000D01*
G01*
G37*
%TD*%
M02*
